<svg xmlns="http://www.w3.org/2000/svg" viewBox="0 0 97 113.4">
    <defs>
        <style>.cls-1{isolation:isolate;}.cls-2{fill:#dbe0d7;}</style>
    </defs>
    <g id="Livello_2" data-name="Livello 2">
        <g id="Livello_3" data-name="Livello 3">
            <g id="Livello_3-2" data-name="Livello 3">
                <g id="Ampersand" class="cls-1">
                    <path class="cls-2"
                          d="M77.8,113.4c-9.1,0-17.5-5.2-24.7-15.6-4.3,5.3-8.2,9.1-12.1,11.6a25.66,25.66,0,0,1-14.5,4c-6.8,0-12.9-3.1-18.1-9.2A34.5,34.5,0,0,1,0,83.1c0-14.8,7.7-27.2,22.7-37-2.1-4-3.5-6.6-4.3-8.1a45.84,45.84,0,0,1-2.8-7.7A32.45,32.45,0,0,1,14,20.4c0-6.2,2.2-11.2,6.7-14.9A22.55,22.55,0,0,1,35.6,0a23.14,23.14,0,0,1,14,4.7,15.38,15.38,0,0,1,6.6,13.1,24.89,24.89,0,0,1-1.3,8.5,22.77,22.77,0,0,1-4.7,7.5c-2.5,2.6-4,4.1-5.2,5.1s-3.6,2.8-6.6,4.9c-.5.4-.9.7-1.2,1,1.8,2.9,5,8.1,9.2,15.2l2.4,4c3.9,6.5,7,11.8,9.5,15.6,5.8-8,8.6-16,8.6-24.2,0-5.8-3.6-8.6-10.9-8.6h-.5V41.1H87.2v5.5l-.4.1a18.17,18.17,0,0,0-10.7,8.2A97.14,97.14,0,0,0,68.4,71c-2.4,6.4-4.6,11.1-6.9,14.3,7.4,11.4,14.1,17.2,19.8,17.2,4.6,0,8.4-2.4,11.7-7.5l.4-.6L97,99.9l-.1.3a24.71,24.71,0,0,1-8.1,9.5A18.66,18.66,0,0,1,77.8,113.4ZM25.7,51.6a48.73,48.73,0,0,0-9.3,10.5,23.43,23.43,0,0,0-3.3,12.8,30,30,0,0,0,5.8,17.7c3.8,5.3,8.4,8.3,13.8,8.9a20.42,20.42,0,0,0,17.1-8.6C47.2,88.8,38.7,74.2,25.7,51.6ZM35.1,7a9.44,9.44,0,0,0-7.2,3.2,10.93,10.93,0,0,0-3.2,8,17.19,17.19,0,0,0,1.5,7.2,46,46,0,0,0,4,7.6l.3.5c1.4,2.4,2.4,4.2,3.1,5.6C42,33,46.1,26.6,46.1,19.7a13.16,13.16,0,0,0-3.3-9A10.16,10.16,0,0,0,35.1,7Z"/>
                </g>
            </g>
        </g>
    </g>
</svg>