<svg xmlns="http://www.w3.org/2000/svg" viewBox="0 0 81.65 13.92">
    <defs>
        <style>
            .cls-1{isolation:isolate;}
            .cls-2{fill:#dbe0d7;stroke:#dbe0d7;stroke-miterlimit:4;stroke-width:0.1px;}
            .cls-3{fill:none;stroke:#b0c5af;stroke-linecap:round;stroke-linejoin:round;stroke-width:1.42px;}
        </style>
    </defs>
    <g id="Livello_2" data-name="Livello 2">
        <g id="Livello_4" data-name="Livello 4">
            <g id="Data_outline" data-name="Data outline">
                <g class="cls-1">
                    <path class="cls-2"
                          d="M5.12,2v2.2h-.3c-.39-1.3-1.2-2-2.2-2a1.93,1.93,0,0,0-1.39.5,1.59,1.59,0,0,0-.5,1,.9.9,0,0,0,.39.8,3.82,3.82,0,0,0,1.5.5,5.67,5.67,0,0,1,1.7.5,2.84,2.84,0,0,1,1,.9,2.3,2.3,0,0,1,.4,1.4,3.23,3.23,0,0,1-.8,2.1,2.44,2.44,0,0,1-2,.8,3.25,3.25,0,0,1-2-.7l-.6.5H.12V8.21H.43a3.94,3.94,0,0,0,1,1.7,2,2,0,0,0,1.5.6,3,3,0,0,0,1.5-.5,1.73,1.73,0,0,0,.69-1.3,1.56,1.56,0,0,0-.5-1.1A2.62,2.62,0,0,0,3.12,7a13.16,13.16,0,0,1-1.6-.4,1.76,1.76,0,0,1-.9-.8,3,3,0,0,1-.39-1.3,2.34,2.34,0,0,1,.7-1.7A2.55,2.55,0,0,1,2.82,2a2.79,2.79,0,0,1,1.8.6c.2-.1.31-.3.5-.6Z"/>
                    <path class="cls-2"
                          d="M11.83,7.91H9.12l-.89,2.3h1.6v.3H6.73v-.3h1.2L11,1.81h.21l3,8.4h1.1v.3h-4.1v-.3h1.39Zm-2.6-.3h2.5l-1.21-3.4h0Z"/>
                    <path class="cls-2"
                          d="M17.52,10.21V2.31H16.23V2h4.39a4.23,4.23,0,0,1,1.21.1,2.66,2.66,0,0,1,1,.4,2.66,2.66,0,0,1,.69.8,3.17,3.17,0,0,1,.21.8c0,1-.8,1.7-2.3,2h0c1.8.3,2.6,1,2.6,2.2a2.92,2.92,0,0,1-.2.9,2.73,2.73,0,0,1-.71.8,2.07,2.07,0,0,1-1.1.4,5.2,5.2,0,0,1-1.29.1H16.42v-.3Zm2.81-7.8H19V6h1.2c.8,0,1.3-.2,1.5-.5A2.81,2.81,0,0,0,22,4a2.68,2.68,0,0,0-.2-1.1.66.66,0,0,0-.5-.4A3.11,3.11,0,0,0,20.33,2.41Zm-.21,3.9h-1.2v4h1.2a3.85,3.85,0,0,0,1.11-.1,1.19,1.19,0,0,0,.7-.5,2.65,2.65,0,0,0,.3-1.4,2.12,2.12,0,0,0-.4-1.5C21.52,6.41,20.92,6.31,20.12,6.31Z"/>
                </g>
                <g class="cls-1">
                    <path class="cls-2"
                          d="M36.72,6.11h0a2.81,2.81,0,0,1,1.9.8,1.83,1.83,0,0,1,.5,1.4,2.28,2.28,0,0,1-.79,1.7,2.74,2.74,0,0,1-2,.7,2.46,2.46,0,0,1-1.5-.5,1.35,1.35,0,0,1-.6-1.1,1.42,1.42,0,0,1,.2-.6c.1-.2.3-.2.5-.2a.52.52,0,0,1,.4.2.76.76,0,0,1,.2.5.6.6,0,0,1-.3.6c-.1.1-.2.1-.2.2s.1.2.4.4a1.49,1.49,0,0,0,.9.2c1,0,1.5-.6,1.5-1.9a2.16,2.16,0,0,0-.6-1.8,1.94,1.94,0,0,0-1.2-.4h-.6c-.2,0-.3-.1-.3-.2s.1-.2.3-.2h.7a3.93,3.93,0,0,0,.6-.2c.3-.1.4-.3.6-.6a2.86,2.86,0,0,0,.2-1.1,1.88,1.88,0,0,0-.3-1.3,1,1,0,0,0-.8-.3,1.88,1.88,0,0,0-.8.2q-.3.15-.3.3a1.24,1.24,0,0,0,.3.2.46.46,0,0,1,.3.5.52.52,0,0,1-.2.4.76.76,0,0,1-.4.2.54.54,0,0,1-.41-.2.82.82,0,0,1-.2-.5,1.37,1.37,0,0,1,.6-1,2.12,2.12,0,0,1,1.4-.4,2.74,2.74,0,0,1,1.6.5,1.71,1.71,0,0,1,.7,1.3A2.54,2.54,0,0,1,36.72,6.11Z"/>
                    <path class="cls-2" d="M43.62,2.21v8h1.5v.3H41v-.3h1.5V2.71H41v-.3h.2A6.13,6.13,0,0,0,43.62,2.21Z"/>
                </g>
                <g class="cls-1">
                    <path class="cls-2"
                          d="M60.22,7.91H57.53l-.81,2.3h1.6v.3h-3.1v-.3h1.2l3.1-8.4h.2l3,8.4h1.1v.3h-4.1v-.3h1.4Zm-2.6-.3h2.5l-1.19-3.4h0Z"/>
                    <path class="cls-2"
                          d="M69.72,7.71h-1.4v-.3h4.4v.3H71.53a2.45,2.45,0,0,1-1,2.3,3.62,3.62,0,0,1-2.2.7,3.54,3.54,0,0,1-2.8-1.3,4.92,4.92,0,0,1,0-6.2,3.53,3.53,0,0,1,2.8-1.3,3.69,3.69,0,0,1,1.7.5,1.57,1.57,0,0,1,.3.2c.1,0,.3-.1.4-.4H71l.1,2.3h-.3c-.4-1.5-1.2-2.3-2.5-2.3a2.07,2.07,0,0,0-1.5.5,2.28,2.28,0,0,0-.6,1.2,10.93,10.93,0,0,0-.1,2,17.58,17.58,0,0,0,.2,3.1,1.68,1.68,0,0,0,.6,1.1,1.57,1.57,0,0,0,1.19.4,2.91,2.91,0,0,0,1-.2.74.74,0,0,0,.5-.7c0-.3.1-.8.1-1.4Z"/>
                    <path class="cls-2"
                          d="M77.62,10.81a3.67,3.67,0,0,1-2.8-1.4,4.41,4.41,0,0,1-1.2-3,4.59,4.59,0,0,1,1.2-3.2,3.54,3.54,0,0,1,2.8-1.3,3.6,3.6,0,0,1,2.7,1.4,4.47,4.47,0,0,1,1.2,3.1,4.47,4.47,0,0,1-1.2,3.1A3.83,3.83,0,0,1,77.62,10.81Zm0-8.6a2.77,2.77,0,0,0-1.3.3,1.88,1.88,0,0,0-.8,1.1,16,16,0,0,0-.2,2.8,14.12,14.12,0,0,0,.1,2.2,2.26,2.26,0,0,0,.6,1.3,1.72,1.72,0,0,0,1.5.5,2.66,2.66,0,0,0,1.2-.3,1.57,1.57,0,0,0,.8-1.3,19.53,19.53,0,0,0,.2-2.9,12.94,12.94,0,0,0-.2-2.5,2,2,0,0,0-.7-1A4.86,4.86,0,0,0,77.62,2.21Z"/>
                </g>
                <line class="cls-3" x1="29.03" y1="0.71" x2="29.03" y2="13.21"/>
                <line class="cls-3" x1="50.53" y1="0.71" x2="50.53" y2="13.21"/>
            </g>
        </g>
    </g>
</svg>