<?xml version="1.0" encoding="utf-8"?>
<!-- Generator: Adobe Illustrator 25.0.0, SVG Export Plug-In . SVG Version: 6.00 Build 0)  -->
<svg version="1.1" id="Livello_1" xmlns="http://www.w3.org/2000/svg" xmlns:xlink="http://www.w3.org/1999/xlink" x="0px" y="0px"
	 viewBox="0 0 164 143.5" style="enable-background:new 0 0 164 143.5;" xml:space="preserve">
<style type="text/css">
	.st0{fill:#99A598;stroke:#99A598;stroke-width:0.5;stroke-linecap:square;stroke-linejoin:round;stroke-miterlimit:10;}
	.st1{display:none;}
	.st2{opacity:0.25;enable-background:new    ;}
	.st3{fill:#B1C6AF;}
</style>
<g id="Livello_1_1_">
	<g id="Tiziano_outline">
		<g>
			<path class="st0" d="M-313.1,91l0.8-1.3c4.9-7.9,9.8-13.2,14.9-16.1l0.3,0.3c-1.7,1.1-3.3,2.2-4.7,3.4s-2.6,2.6-3.7,4.2
				c-1.1,1.6-2.1,3.3-3.1,5.2c-1.7,3.5-3,6.1-3.9,7.7s-1.8,3.1-2.8,4.3c-1.3,1.7-2.8,3.2-4.4,4.6c-1.6,1.4-3.3,2.5-4.9,3.3
				c-1.7,0.9-3.4,1.5-5.2,2c-1.8,0.5-3.6,0.7-5.4,0.7c-2.3,0-4-0.4-5.1-1.2c-1.1-0.8-1.6-1.8-1.6-3.1c0-0.8,0.2-1.4,0.6-1.9
				c0.4-0.5,0.8-0.7,1.3-0.7c0.9,0,1.3,0.4,1.3,1.3c0,0.3-0.1,0.6-0.3,0.8c-0.2,0.2-0.4,0.4-0.7,0.4c-0.9,0-1.2-0.6-0.9-1.9
				c-0.3,0.2-0.6,0.5-0.7,0.8c-0.1,0.3-0.2,0.7-0.2,1.2c0,1.1,0.5,2,1.6,2.8c1.1,0.7,2.5,1.1,4.4,1.1c2.8,0,5.5-0.6,8-1.7
				s4.4-2.4,5.7-3.9c0.8-0.8,1.5-1.7,2.1-2.5c0.6-0.8,1.5-2,2.6-3.6S-314.6,93.6-313.1,91z M-307.4,76.3h0.4
				c-1.6,3.7-3.4,6.5-5.4,8.4c-2,1.9-3.8,3-5.3,3.5s-2.6,0.7-3.4,0.7c-1.5,0-2.7-0.4-3.5-1.3c-0.9-0.8-1.3-2-1.3-3.4
				c0-1.2,0.4-2.6,1.1-4.2c0.7-1.5,1.9-3,3.4-4.4s3.5-2.6,6-3.5s5.3-1.4,8.5-1.4c2.3,0,5.2,0.2,8.9,0.6c3.4,0.4,5.9,0.6,7.6,0.6
				c1.7,0,3.1-0.1,4.2-0.3c1.1-0.2,1.9-0.5,2.4-0.9h0.5c-0.8,0.8-2.1,1.5-3.9,2c-1.8,0.5-3.5,0.8-4.9,0.8c-0.8,0-2.9-0.3-6.5-0.9
				c-5-0.8-8.2-1.3-9.5-1.3c-2.6,0-5,0.4-7.2,1.2c-2.2,0.8-4.1,1.9-5.6,3.3c-1.5,1.4-2.7,2.8-3.4,4.3c-0.8,1.5-1.2,2.9-1.2,4.2
				c0,1.3,0.4,2.3,1.2,3.1c0.8,0.8,1.8,1.1,3.1,1.1c1,0,2.1-0.3,3.4-0.8c1.3-0.5,2.6-1.3,3.8-2.3c1.3-1,2.5-2.3,3.7-3.9
				C-309.1,79.9-308.1,78.2-307.4,76.3z"/>
			<path class="st0" d="M-310,100.5l-0.1-0.5c1.5-1.6,3.2-3.1,5.2-4.5h2.7l-7,9c-0.5,0.6-0.8,1.2-0.9,1.8c-0.1,0.5,0,0.8,0.4,0.8
				c1,0,2.4-0.8,4.4-2.5c1.9-1.7,3.7-3.5,5.4-5.3v0.6c-1.9,2.1-3.7,3.9-5.5,5.5c-1.8,1.5-3.2,2.3-4.3,2.3c-0.6,0-1-0.4-1-1.2
				c0-2.4,1.6-5.4,4.8-9.1c0.2-0.2,0.3-0.4,0.5-0.6c0.1-0.2,0.3-0.4,0.4-0.5C-306.8,97.4-308.5,98.8-310,100.5z M-299.8,88.3
				c0.4,0,0.6,0.3,0.6,0.9c0,0.4-0.1,0.7-0.3,0.9c-0.2,0.2-0.4,0.3-0.7,0.3c-0.5,0-0.8-0.3-0.8-0.8c0-0.3,0.1-0.6,0.3-0.9
				C-300.4,88.4-300.1,88.3-299.8,88.3z"/>
			<path class="st0" d="M-300.7,100l3.4-3.3c-0.1-0.6,0-1.1,0.3-1.5c0.3-0.4,0.7-0.6,1.2-0.6s0.8,0.3,0.8,0.9c0,0.3-0.1,0.5-0.2,0.7
				c-0.1,0.2-0.3,0.3-0.6,0.3c-0.5,0-0.8-0.1-1-0.4c-0.1,0.3,0,0.6,0.3,0.9c0.3,0.3,0.7,0.4,1.3,0.4c1.4,0,2.4-0.3,3-0.8l1-1
				c1-1,1.7-1.5,2.1-1.5c0.3,0,0.4,0.1,0.4,0.3c0,1.1-1.3,2.1-3.9,2.9l-6.2,6.1c1-0.4,1.9-0.5,2.7-0.5c1.1,0,1.6,0.5,1.6,1.5
				c0,0.4-0.2,0.9-0.7,1.4c-0.2,0.2-0.3,0.4-0.3,0.6s0.1,0.3,0.2,0.3c0.4,0,1.4-0.8,3.1-2.4c1.7-1.6,3.3-3.3,4.9-5.2v0.6
				c-4.6,5.2-7.6,7.8-8.9,7.8c-0.3,0-0.5-0.1-0.8-0.3c-0.2-0.2-0.3-0.5-0.3-0.9c0-0.5,0.3-1.2,1-1.8c0.4-0.3,0.6-0.5,0.7-0.8
				c0.1-0.3-0.2-0.4-0.9-0.4c-1,0-2.3,0.6-3.9,1.7c-0.3,0.3-0.5,0.7-0.8,1.1c-0.3,0.4-0.5,0.7-0.8,1c-0.3,0.3-0.5,0.4-0.7,0.4
				c-0.4,0-0.6-0.2-0.6-0.5c0-0.6,1.1-1.7,3.4-3.1l6.7-6.5c-0.9,0.2-1.6,0.3-2,0.3c-0.9,0-1.5-0.3-1.7-0.8l-3.7,3.6L-300.7,100
				L-300.7,100z"/>
			<path class="st0" d="M-287.9,100.5l-0.1-0.5c1.5-1.6,3.2-3.1,5.2-4.5h2.7l-7,9c-0.5,0.6-0.8,1.2-0.9,1.8c-0.1,0.5,0,0.8,0.4,0.8
				c1,0,2.4-0.8,4.4-2.5c1.9-1.7,3.7-3.5,5.4-5.3v0.6c-1.9,2.1-3.7,3.9-5.5,5.5c-1.8,1.5-3.2,2.3-4.3,2.3c-0.6,0-1-0.4-1-1.2
				c0-2.4,1.6-5.4,4.8-9.1c0.2-0.2,0.3-0.4,0.5-0.6c0.1-0.2,0.3-0.4,0.4-0.5C-284.7,97.4-286.4,98.8-287.9,100.5z M-277.7,88.3
				c0.4,0,0.6,0.3,0.6,0.9c0,0.4-0.1,0.7-0.3,0.9c-0.2,0.2-0.4,0.3-0.7,0.3c-0.5,0-0.8-0.3-0.8-0.8c0-0.3,0.1-0.6,0.3-0.9
				C-278.3,88.4-278,88.3-277.7,88.3z"/>
			<path class="st0" d="M-262.1,99.9l-1.5,1.5c-2.4,2.3-4.1,3.9-5.2,4.8c-1.1,0.9-2.1,1.4-3,1.4c-0.6,0-0.9-0.4-0.9-1.1
				c0-0.8,0.3-1.9,0.8-3.3c-2.8,3-4.9,4.5-6.2,4.5c-0.6,0-1.1-0.3-1.4-0.8c-0.4-0.5-0.6-1.3-0.6-2.3c0-1.2,0.3-2.3,0.9-3.4
				c0.6-1.1,1.4-2.1,2.4-3s2.1-1.5,3.3-2.1c1.2-0.5,2.4-0.8,3.6-0.8c0.6,0,1,0.1,1.3,0.4c0.3,0.3,0.4,0.6,0.4,1.2c0,0.1,0,0.2,0,0.3
				s0,0.2-0.1,0.4c0,0.2-0.1,0.3-0.1,0.4l1.9-2.5l2.5-0.2l-0.9,1c-0.6,0.9-1.1,1.6-1.5,2.1c-0.4,0.6-0.7,1-1,1.4
				c-3.1,3.9-4.6,6.1-4.6,6.8c0,0.3,0.1,0.5,0.4,0.5c0.4,0,0.9-0.3,1.7-0.8c0.8-0.5,1.6-1.2,2.5-2c0.9-0.8,2-1.8,3.2-3
				c1.2-1.2,1.9-1.8,2.1-2L-262.1,99.9L-262.1,99.9z M-269.9,95.7c-1.2,0-2.5,0.7-3.9,2c-1.4,1.3-2.7,2.9-3.8,4.6s-1.6,2.9-1.6,3.6
				c0,0.3,0.1,0.6,0.3,0.9c0.2,0.2,0.4,0.3,0.7,0.3c0.8,0,2-0.6,3.5-1.9c1.5-1.3,2.9-2.8,4.1-4.4c1.2-1.6,1.8-2.9,1.8-3.9
				C-268.8,96.1-269.2,95.7-269.9,95.7z"/>
			<path class="st0" d="M-262.9,100.6v-0.5c3-3.2,5.1-4.8,6.3-4.8c0.7,0,1,0.5,1,1.5c0,0.8-0.2,1.5-0.6,2.3
				c-0.4,0.8-1.2,2.1-2.5,3.9c2.4-2.3,4.5-4.2,6.3-5.6s3.3-2.1,4.6-2.1c0.7,0,1,0.5,1,1.6c0,1-0.3,2.1-0.9,3.1s-1.7,2.2-3.1,3.4
				c-1.5,1.3-2.3,2.3-2.3,2.9c0,0.2,0.1,0.4,0.3,0.6c0.2,0.2,0.4,0.3,0.6,0.3c0.7,0,1.6-0.4,2.7-1.3s2.4-2,3.7-3.3
				c1.3-1.4,2.4-2.4,3.2-3.3v0.6c-1.2,1.3-2.4,2.5-3.5,3.6s-2.3,2.1-3.4,2.9c-1.1,0.8-2.1,1.2-2.8,1.2c-0.5,0-0.8-0.2-1-0.5
				c-0.2-0.4-0.3-0.7-0.3-1.1c0-0.9,0.3-1.8,0.9-2.9s1.4-2.1,2.4-3.2c1.2-1.2,2-2.2,2.5-3c0.5-0.7,0.3-1.1-0.4-1.1
				c-0.9,0-2.3,0.7-4.2,2.2c-1.9,1.4-3.6,3-5.2,4.6s-3.2,3.2-4.6,4.7h-2.3l3.9-5.1c2.9-3.7,4.3-5.7,4.3-6.1c0-0.2-0.1-0.3-0.4-0.3
				C-257.6,95.7-259.7,97.3-262.9,100.6z"/>
			<path class="st0" d="M-230.1,99.2v0.6c-1.1,1.5-2.3,2.3-3.7,2.3c-0.1,0-0.3,0-0.4-0.1c-0.1,0-0.3,0-0.5-0.1
				c-3.1,3.8-5.9,5.7-8.2,5.7c-0.4,0-0.8-0.1-1.2-0.4c-0.4-0.3-0.6-0.6-0.8-1c-0.2-0.4-0.3-0.9-0.3-1.5c0-1.5,0.6-3,1.7-4.5
				c1.2-1.5,2.6-2.6,4.2-3.6c1.6-0.9,3.1-1.4,4.3-1.4c1.3,0,2,0.7,2,2.2c0,1.2-0.5,2.5-1.4,4.1c0.2,0.1,0.4,0.1,0.6,0.1
				C-232.4,101.6-231.2,100.8-230.1,99.2z M-234.8,95.7c-1.1,0-2.4,0.7-3.8,2.2c-1.4,1.4-2.7,3-3.8,4.8c-1.1,1.7-1.7,2.8-1.7,3.2
				s0.1,0.7,0.4,0.9c0.3,0.2,0.6,0.4,1.1,0.4c1,0,2.3-0.6,3.8-1.8c1.5-1.2,2.8-2.6,3.9-4.2c1.1-1.6,1.7-2.9,1.7-3.8
				c0-0.5-0.1-0.8-0.4-1.1C-234,95.8-234.4,95.7-234.8,95.7z"/>
		</g>
	</g>
	<g class="st1">
		
			<text transform="matrix(0.8622 0 0 1 -405.1895 59.5425)" style="display:inline;fill:#99A598; font-family:'PalaceScriptMT'; font-size:70px;">Tiziano</text>
		
			<text transform="matrix(0.8622 0 0 1 -405.1895 59.5425)" style="display:inline;fill:none;stroke:#99A598;stroke-width:0.75;stroke-linecap:square;stroke-linejoin:round;stroke-miterlimit:10; font-family:'PalaceScriptMT'; font-size:70px;">Tiziano</text>
	</g>
	<g class="st1">
		
			<text transform="matrix(0.8622 0 0 1 -296.7871 102.7861)" style="display:inline;fill:#99A598; font-family:'PalaceScriptMT'; font-size:70px;">Martina</text>
		
			<text transform="matrix(0.8622 0 0 1 -296.7871 102.7861)" style="display:inline;fill:none;stroke:#99A598;stroke-width:0.75;stroke-linecap:square;stroke-linejoin:round;stroke-miterlimit:10; font-family:'PalaceScriptMT'; font-size:70px;">Martina</text>
	</g>
	<script  type="application/ecmascript" xmlns="http://www.w3.org/2000/svg">//	<![CDATA[
<!--            debugger-->
        var tiziano = document.querySelector('#Tiziano_outline');
        var martina = document.querySelector('#Martina_outline');
        var ampersand = document.querySelector('#Ampersand');
        setTimeout(()=>{
        	tiziano.classList.add("tiziano--show")
        	martina.classList.add("martina--show")
        	ampersand.classList.add("ampersand--show")

        },200)

	
		
		]]>
</script>
</g>
<g id="Livello_2_1_">
	<g id="Martina_outline">
		<g>
			<path class="st0" d="M-145.2,96.3c1.2-1.5,3-3.7,5.5-6.6c2.5-2.9,4.5-5.2,6-6.8c1.7-1.8,3.1-3.3,4.3-4.6c1.2-1.3,2.2-2.3,3-3.1
				c0.8-0.8,1.8-1.6,2.8-2.4c1-0.8,2.1-1.7,3.4-2.6l0.4,0.3c-3.3,4.3-5.4,7-6.1,8.1l-0.6,0.8c-0.1,0.2-0.4,0.5-0.8,1.1
				c-2.8,3.7-5.8,8-9.1,12.6c-2.6,3.8-4.5,6.5-5.5,8.2c-1.1,1.6-1.9,3-2.4,4s-0.9,1.9-1.1,2.6s-0.2,1.1,0.1,1.1c0.4,0,1-0.4,1.9-1.3
				s1.9-2,3-3.3c1.1-1.3,2.8-3.4,5.1-6.3c0.5-0.7,1.1-1.4,1.7-2.1s1.2-1.5,2-2.5c0.8-0.9,1.5-1.8,2.1-2.6c2.7-3.3,4.7-5.8,6.1-7.3
				s3-3.3,5-5.4l1.7-1.7c2.5-2.6,4.8-4.6,6.9-6l0.4,0.3l-1.2,1.7c-4.1,5.7-7.8,10.9-10.9,15.4s-5.6,8.1-7.3,10.7
				c-1.7,2.6-3.1,4.8-4.1,6.6c-1,1.8-1.5,2.9-1.5,3.3c0,0.5,0.2,0.8,0.6,0.8c0.7,0,1.6-0.5,2.8-1.5s2.6-2.4,4.3-4.1
				c1.7-1.7,3-3.1,4-4.2v0.6c-2.5,2.7-4.4,4.7-5.5,5.8s-2.2,2.1-3.2,2.8c-1,0.7-1.8,1-2.6,1c-0.7,0-1.1-0.5-1.1-1.4
				c0-1.8,0.6-4,1.7-6.4s2.7-5,4.5-7.7c1.9-2.7,4.2-5.7,7-9.2l10.8-13.3c-2,1.3-5.7,4.8-10.9,10.6c-0.2,0.2-0.5,0.6-0.9,1
				c-0.4,0.5-1,1.2-1.9,2.2s-2,2.4-3.4,4.1c-1.4,1.8-2.8,3.4-4.1,5l-0.9,1.1c-0.2,0.4-0.5,0.7-0.9,1.1c-2.5,3.2-4.3,5.5-5.6,7
				c-1.2,1.5-2.4,2.8-3.4,3.8c-1.1,1-1.9,1.6-2.5,1.6c-0.1,0-0.3-0.1-0.4-0.4s-0.2-0.5-0.2-0.8c0-1.5,0.4-3.2,1.2-5
				c0.8-1.8,1.8-3.7,2.9-5.5c1.1-1.8,2.3-3.5,3.6-5c3.2-4.2,5.7-7.4,7.4-9.5s3.7-4.5,6.1-7.2l4.2-4.6c-1.8,1.3-3.2,2.4-4.1,3.3
				c-0.9,0.8-2.3,2.1-4.1,3.9c-0.8,0.8-1.9,2-3.4,3.7c-1.5,1.7-2.9,3.2-4.2,4.6c-1.2,1.4-2.5,2.9-3.9,4.5s-2.8,3.4-4.3,5.3
				c-2,2.5-3.4,4.2-4.2,5.3c-0.8,1-1.9,2.2-3.2,3.4c-1.3,1.2-2.7,2.2-4.2,2.9c-1.5,0.7-3,1.1-4.7,1.1c-1.2,0-2.1-0.3-2.8-0.9
				c-0.7-0.6-1.1-1.4-1.1-2.4c0-0.7,0.1-1.3,0.4-1.7c0.3-0.5,0.7-0.7,1.3-0.7c0.3,0,0.6,0.1,0.9,0.4s0.4,0.6,0.4,0.9
				s-0.1,0.6-0.3,0.8c-0.2,0.2-0.4,0.4-0.7,0.4c-0.7,0-1-0.5-0.8-1.4c0-0.1,0-0.2-0.1-0.3c-0.2,0-0.4,0.2-0.5,0.5
				c-0.1,0.4-0.2,0.7-0.2,1.1c0,0.8,0.3,1.4,1,1.9c0.6,0.5,1.4,0.8,2.4,0.8c1.7,0,3.3-0.4,4.8-1.1s2.8-1.6,4-2.7
				c1.2-1.1,2.1-2.1,2.8-3C-148.8,101-147.3,99.2-145.2,96.3z"/>
			<path class="st0" d="M-106.9,99.8l-1.5,1.5c-2.4,2.3-4.1,3.9-5.2,4.8s-2.1,1.4-3,1.4c-0.6,0-0.9-0.4-0.9-1.1
				c0-0.8,0.3-1.9,0.8-3.3c-2.8,3-4.9,4.5-6.2,4.5c-0.6,0-1.1-0.3-1.4-0.8s-0.6-1.3-0.6-2.3c0-1.2,0.3-2.3,0.9-3.4
				c0.6-1.1,1.4-2.1,2.4-3s2.1-1.5,3.3-2.1c1.2-0.5,2.4-0.8,3.6-0.8c0.6,0,1,0.1,1.3,0.4c0.3,0.2,0.4,0.6,0.4,1.2c0,0.1,0,0.2,0,0.3
				s0,0.2-0.1,0.4c0,0.2-0.1,0.3-0.1,0.4l1.9-2.5l2.5-0.2l-0.8,1.1c-0.6,0.9-1.1,1.6-1.5,2.1c-0.4,0.6-0.7,1-1,1.4
				c-3.1,3.9-4.6,6.1-4.6,6.8c0,0.3,0.1,0.5,0.4,0.5c0.4,0,0.9-0.3,1.7-0.8c0.7-0.5,1.6-1.2,2.5-2c0.9-0.8,2-1.8,3.2-3
				c1.2-1.2,1.9-1.8,2.1-2L-106.9,99.8L-106.9,99.8z M-114.7,95.5c-1.2,0-2.5,0.7-3.9,2c-1.4,1.3-2.7,2.9-3.8,4.6
				c-1.1,1.7-1.6,2.9-1.6,3.6c0,0.3,0.1,0.6,0.3,0.9c0.2,0.2,0.4,0.3,0.7,0.3c0.8,0,2-0.6,3.5-1.9s2.9-2.8,4.1-4.4s1.8-2.9,1.8-3.9
				C-113.6,95.9-114,95.5-114.7,95.5z"/>
			<path class="st0" d="M-107.7,99.9c0.9-0.8,1.8-1.7,2.6-2.5c0.9-0.8,1.7-1.6,2.6-2.4c-0.2-0.7-0.1-1.3,0.2-1.9
				c0.3-0.6,0.7-0.8,1.1-0.8c0.3,0,0.5,0.1,0.7,0.3c0.2,0.2,0.3,0.4,0.3,0.6c0,0.3-0.1,0.5-0.3,0.7c-0.2,0.2-0.4,0.3-0.6,0.3
				s-0.6-0.2-1-0.7c-0.1,0.2-0.2,0.4-0.2,0.8c0,0.3,0.1,0.5,0.3,0.8c0.2,0.2,0.4,0.4,0.7,0.4c0.2,0,0.4,0,0.8-0.1s0.6-0.1,0.7-0.1
				c0.2,0,0.3,0.2,0.4,0.5c0.1,0.3,0.2,0.8,0.2,1.2s-0.2,1-0.7,1.6c-0.5,0.7-1.3,1.8-2.5,3.3s-2,2.6-2.4,3.2
				c-0.5,0.6-0.7,1.1-0.7,1.5s0.2,0.5,0.6,0.5c0.5,0,1.7-0.7,3.5-2.2s3.9-3.4,6.3-5.7v0.7c-5.3,5.2-8.6,7.8-10,7.8
				c-0.5,0-0.8-0.4-0.8-1.1c0-1.1,0.2-2.1,0.5-3c0.4-1,1-2,1.9-3.2l3.4-4.5c-0.4,0.2-0.9,0.3-1.4,0.2c-0.5,0-0.8-0.2-1-0.5
				c-2.6,2.5-4.4,4.2-5.4,5v-0.7H-107.7z"/>
			<path class="st0" d="M-85.6,90.4l4.9-6.4h2.5l-4.9,6.4h3.7l-0.3,0.6h-3.8l-7.2,9.4c-0.8,1-1.7,2.2-2.6,3.6
				c-1,1.4-1.4,2.2-1.4,2.3c0,0.5,0.2,0.7,0.6,0.7c1.6,0,5.1-2.6,10.4-7.9v0.6l-1.6,1.6c-4.1,4.1-7,6.2-8.9,6.2
				c-0.5,0-0.8-0.1-1.1-0.4s-0.4-0.6-0.4-1c0-0.9,0.6-2.4,1.7-4.5s3.3-5.1,6.5-8.8c-2,1.5-4.8,4.2-8.4,7.8v-0.7
				c1.2-1.3,2.7-2.8,4.5-4.5c1.8-1.7,3.5-3.2,5.2-4.5h-2.2l0.4-0.6L-85.6,90.4L-85.6,90.4z"/>
			<path class="st0" d="M-84.3,100.4l-0.1-0.5c1.5-1.6,3.2-3.1,5.2-4.5h2.7l-7,9c-0.5,0.6-0.8,1.2-0.9,1.8s0,0.8,0.4,0.8
				c1,0,2.4-0.8,4.4-2.5c1.9-1.7,3.7-3.5,5.4-5.3v0.6c-1.9,2.1-3.7,3.9-5.5,5.5c-1.8,1.5-3.2,2.3-4.3,2.3c-0.6,0-1-0.4-1-1.2
				c0-2.4,1.6-5.4,4.8-9.1c0.2-0.2,0.3-0.4,0.5-0.6s0.3-0.4,0.4-0.5C-81.1,97.3-82.8,98.8-84.3,100.4z M-74.1,88.2
				c0.4,0,0.6,0.3,0.6,0.9c0,0.4-0.1,0.7-0.3,0.9c-0.2,0.2-0.4,0.3-0.7,0.3c-0.5,0-0.8-0.3-0.8-0.8c0-0.3,0.1-0.6,0.3-0.9
				C-74.7,88.4-74.3,88.2-74.1,88.2z"/>
			<path class="st0" d="M-75,100.4v-0.5c3-3.2,5.1-4.8,6.3-4.8c0.7,0,1,0.5,1,1.5c0,0.8-0.2,1.5-0.6,2.3c-0.4,0.8-1.2,2.1-2.5,3.9
				c2.4-2.3,4.5-4.2,6.3-5.6c1.8-1.4,3.3-2.1,4.6-2.1c0.7,0,1,0.5,1,1.6c0,1-0.3,2.1-0.9,3.1s-1.7,2.2-3.1,3.4
				c-1.5,1.3-2.3,2.3-2.3,2.9c0,0.2,0.1,0.4,0.3,0.6s0.4,0.3,0.6,0.3c0.7,0,1.6-0.4,2.7-1.3s2.4-2,3.7-3.3c1.3-1.3,2.4-2.4,3.2-3.3
				v0.6c-1.2,1.3-2.4,2.5-3.5,3.6s-2.3,2.1-3.4,2.9s-2.1,1.2-2.8,1.2c-0.5,0-0.8-0.2-1-0.5c-0.2-0.4-0.3-0.7-0.3-1.1
				c0-0.9,0.3-1.8,0.9-2.9s1.4-2.1,2.4-3.2c1.2-1.2,2-2.2,2.5-3c0.5-0.8,0.3-1.1-0.4-1.1c-0.9,0-2.3,0.7-4.2,2.2
				c-1.9,1.4-3.6,3-5.2,4.6s-3.2,3.2-4.6,4.7h-2.3l3.9-5.1c2.9-3.7,4.3-5.7,4.3-6.1c0-0.2-0.1-0.3-0.4-0.3
				C-69.7,95.5-71.8,97.3-75,100.4z"/>
			<path class="st0" d="M-39,99.8l-1.5,1.5c-2.4,2.3-4.1,3.9-5.2,4.8s-2.1,1.4-3,1.4c-0.6,0-0.9-0.4-0.9-1.1c0-0.8,0.3-1.9,0.8-3.3
				c-2.8,3-4.9,4.5-6.2,4.5c-0.6,0-1.1-0.3-1.4-0.8c-0.4-0.5-0.6-1.3-0.6-2.3c0-1.2,0.3-2.3,0.9-3.4c0.6-1.1,1.4-2.1,2.4-3
				s2.1-1.5,3.3-2.1c1.2-0.5,2.4-0.8,3.6-0.8c0.6,0,1,0.1,1.3,0.4c0.3,0.3,0.4,0.6,0.4,1.2c0,0.1,0,0.2,0,0.3s0,0.2-0.1,0.4
				c0,0.2-0.1,0.3-0.1,0.4l1.9-2.5l2.5-0.2l-0.8,1.1c-0.6,0.9-1.1,1.6-1.5,2.1c-0.4,0.6-0.7,1-1,1.4c-3.1,3.9-4.6,6.1-4.6,6.8
				c0,0.3,0.1,0.5,0.4,0.5c0.4,0,0.9-0.3,1.7-0.8c0.7-0.5,1.6-1.2,2.5-2c0.9-0.8,2-1.8,3.2-3c1.2-1.2,1.9-1.8,2.1-2L-39,99.8
				L-39,99.8z M-46.8,95.5c-1.2,0-2.5,0.7-3.9,2c-1.4,1.3-2.7,2.9-3.8,4.6s-1.6,2.9-1.6,3.6c0,0.3,0.1,0.6,0.3,0.9
				c0.2,0.2,0.4,0.3,0.7,0.3c0.8,0,2-0.6,3.5-1.9s2.9-2.8,4.1-4.4s1.8-2.9,1.8-3.9C-45.7,95.9-46.1,95.5-46.8,95.5z"/>
		</g>
	</g>
</g>
<g id="Livello_3">
	<g id="Ampersand" class="st2">
		<g>
			<path class="st3" d="M111.3,128.4c-9.1,0-17.5-5.2-24.7-15.6c-4.3,5.3-8.2,9.1-12.1,11.6c-4.1,2.7-8.9,4-14.5,4
				c-6.8,0-12.9-3.1-18.1-9.2c-5.2-6.1-8-13.2-8.4-21.1c0-14.8,7.7-27.2,22.7-37c-2.1-4-3.5-6.6-4.3-8.1c-0.8-1.6-1.7-3.9-2.8-7.7
				c-1.1-3.4-1.6-6.8-1.6-9.9c0-6.2,2.2-11.2,6.7-14.9c4.4-3.7,9.4-5.5,14.9-5.5c5.1,0,9.8,1.6,14,4.7c4.4,3.2,6.6,7.6,6.6,13.1
				c0,3.2-0.4,6-1.3,8.5c-0.9,2.6-2.5,5-4.7,7.5c-2.5,2.6-4,4.1-5.2,5.1c-1.3,1.1-3.6,2.8-6.6,4.9c-0.5,0.4-0.9,0.7-1.2,1
				c1.8,2.9,5,8.1,9.2,15.2l2.4,4c3.9,6.5,7,11.8,9.5,15.6c5.8-8,8.6-16,8.6-24.2c0-5.8-3.6-8.6-10.9-8.6H89v-5.7h31.7v5.5l-0.4,0.1
				c-4.5,1.3-8.1,4-10.7,8.2c-2.7,4.4-5.3,9.8-7.7,16.1c-2.4,6.4-4.6,11.1-6.9,14.3c7.4,11.4,14.1,17.2,19.8,17.2
				c4.6,0,8.4-2.4,11.7-7.5l0.4-0.6l3.6,5.5l-0.1,0.3c-1.8,3.8-4.6,7-8.1,9.5C118.8,127.2,115.1,128.4,111.3,128.4z M59.2,66.6
				c-4,3.5-7.1,7-9.3,10.5s-3.3,7.7-3.3,12.8c0,6.4,2,12.4,5.8,17.7s8.4,8.3,13.8,8.9c7,0,12.7-2.8,17.1-8.6
				C80.7,103.8,72.2,89.2,59.2,66.6z M68.6,22c-2.8,0-5.1,1-7.2,3.2c-2.1,2.1-3.2,4.8-3.2,8c0,2.6,0.5,5,1.5,7.2
				c1.1,2.6,2.4,5.2,4,7.6l0.3,0.5c1.4,2.4,2.4,4.2,3.1,5.6c8.4-6.1,12.5-12.5,12.5-19.4c0-3.5-1.1-6.5-3.3-9
				C74.1,23.3,71.6,22,68.6,22z"/>
		</g>
	</g>
</g>
</svg>
