<?xml version="1.0" encoding="utf-8"?>
<!-- Generator: Adobe Illustrator 25.0.0, SVG Export Plug-In . SVG Version: 6.00 Build 0)  -->
<svg version="1.1" id="Livello_1" xmlns="http://www.w3.org/2000/svg" xmlns:xlink="http://www.w3.org/1999/xlink" x="0px"
     y="0px"
     viewBox="0 0 284.2 160" style="enable-background:new 0 0 284.2 160;" xml:space="preserve">
<style type="text/css">
	.st0{opacity:0.25;enable-background:new    ;}
	.st1{fill:#B1C6AF;}
	.st2{display:none;}
	.st3{display:inline;fill:#6F8387;}
	.st4{font-family:'BodoniMT';}
	.st5{font-size:13px;}
	.st6{display:inline;fill:none;stroke:#6F8387;stroke-width:0.3004;stroke-miterlimit:4.004;}
	.st7{display:inline;fill:none;stroke:#6F8387;stroke-width:0.3006;stroke-miterlimit:4.006;}
	.st8{display:inline;}
	.st9{fill:#6F8387;}
	.st10{fill:none;stroke:#6F8387;stroke-width:0.3004;stroke-miterlimit:4.004;}
	.st11{display:inline;fill:none;stroke:#B0C5AF;stroke-width:1.42;stroke-linecap:round;stroke-linejoin:round;}
	.st12{enable-background:new    ;}
	.st13{fill:#6F8387;stroke:#6F8387;stroke-width:0.25;stroke-miterlimit:4.002;}
	.st14{fill:none;stroke:#B0C5AF;stroke-width:1.42;stroke-linecap:round;stroke-linejoin:round;}
	.st15{fill:#99A598;stroke:#99A598;stroke-width:0.5;stroke-linecap:square;stroke-linejoin:round;stroke-miterlimit:10;}
	.st16{display:inline;fill:#99A598;}
	.st17{font-family:'PalaceScriptMT';}
	.st18{font-size:70px;}

		.st19{display:inline;fill:none;stroke:#99A598;stroke-width:0.75;stroke-linecap:square;stroke-linejoin:round;stroke-miterlimit:10;}

	.tiziano, .martina{
		will-change: transform;
		opacity: 0;
		transition: transform 600ms, opacity 500ms;
	}

	.ampersand{
		opacity: 0;
		transition: opacity 500ms 600ms;
	}

	.tiziano{
		transform: translate(-25px,0px);
	}

	.martina{
		transform: translate(25px,0px);
	}

	.tiziano--show, .martina--show{
		opacity: 1;
		transform: translate(0px,0px);
	}

	.ampersand--show{
		opacity:0.25;
	}
</style>
    <g id="Ampersand" class="st0 ampersand">
	<g>
		<path class="st1" d="M178.1,115c-9.1,0-17.5-5.2-24.7-15.6c-4.3,5.3-8.2,9.1-12.1,11.6c-4.1,2.7-8.9,4-14.5,4
			c-6.8,0-12.9-3.1-18.1-9.2s-8-13.2-8.4-21.1c0-14.8,7.7-27.2,22.7-37c-2.1-4-3.5-6.6-4.3-8.1c-0.8-1.6-1.7-3.9-2.8-7.7
			c-1.1-3.4-1.6-6.8-1.6-9.9c0-6.2,2.2-11.2,6.7-14.9c4.4-3.7,9.4-5.5,14.9-5.5c5.1,0,9.8,1.6,14,4.7c4.4,3.2,6.6,7.6,6.6,13.1
			c0,3.2-0.4,6-1.3,8.5c-0.9,2.6-2.5,5-4.7,7.5c-2.5,2.6-4,4.1-5.2,5.1c-1.3,1.1-3.6,2.8-6.6,4.9c-0.5,0.4-0.9,0.7-1.2,1
			c1.8,2.9,5,8.1,9.2,15.2l2.4,4c3.9,6.5,7,11.8,9.5,15.6c5.8-8,8.6-16,8.6-24.2c0-5.8-3.6-8.6-10.9-8.6h-0.5v-5.7h31.7v5.5
			l-0.4,0.1c-4.5,1.3-8.1,4-10.7,8.2c-2.7,4.4-5.3,9.8-7.7,16.1c-2.4,6.4-4.6,11.1-6.9,14.3c7.4,11.4,14.1,17.2,19.8,17.2
			c4.6,0,8.4-2.4,11.7-7.5l0.4-0.6l3.6,5.5l-0.1,0.3c-1.8,3.8-4.6,7-8.1,9.5C185.6,113.7,181.9,115,178.1,115z M126,53.1
			c-4,3.5-7.1,7-9.3,10.5c-2.2,3.5-3.3,7.7-3.3,12.8c0,6.4,2,12.4,5.8,17.7s8.4,8.3,13.8,8.9c7,0,12.7-2.8,17.1-8.6
			C147.5,90.4,139,75.8,126,53.1z M135.4,8.5c-2.8,0-5.1,1-7.2,3.2c-2.1,2.1-3.2,4.8-3.2,8c0,2.6,0.5,5,1.5,7.2
			c1.1,2.6,2.4,5.2,4,7.6l0.3,0.5c1.4,2.4,2.4,4.2,3.1,5.6c8.4-6.1,12.5-12.5,12.5-19.4c0-3.5-1.1-6.5-3.3-9
			C140.9,9.8,138.4,8.5,135.4,8.5z"/>
	</g>
</g>
    <g id="Tiziano_outline" class="tiziano">
	<g>
		<path class="st15" d="M53.7,31.7l0.8-1.3c4.9-7.9,9.8-13.2,14.9-16.1l0.3,0.3C68,15.7,66.4,16.8,65,18s-2.6,2.6-3.7,4.2
			c-1.1,1.6-2.1,3.3-3.1,5.2c-1.7,3.5-3,6.1-3.9,7.7c-0.9,1.6-1.8,3.1-2.8,4.3c-1.3,1.7-2.8,3.2-4.4,4.6c-1.6,1.4-3.3,2.5-4.9,3.3
			c-1.7,0.9-3.4,1.5-5.2,2S33.4,50,31.6,50c-2.3,0-4-0.4-5.1-1.2c-1.1-0.8-1.6-1.8-1.6-3.1c0-0.8,0.2-1.4,0.6-1.9
			c0.4-0.5,0.8-0.7,1.3-0.7c0.9,0,1.3,0.4,1.3,1.3c0,0.3-0.1,0.6-0.3,0.8s-0.4,0.4-0.7,0.4c-0.9,0-1.2-0.6-0.9-1.9
			c-0.3,0.2-0.6,0.5-0.7,0.8c-0.1,0.3-0.2,0.7-0.2,1.2c0,1.1,0.5,2,1.6,2.8c1.1,0.7,2.5,1.1,4.4,1.1c2.8,0,5.5-0.6,8-1.7
			c2.5-1.1,4.4-2.4,5.7-3.9c0.8-0.8,1.5-1.7,2.1-2.5c0.6-0.8,1.5-2,2.6-3.6C50.8,36.3,52.2,34.3,53.7,31.7z M59.4,17h0.4
			c-1.6,3.7-3.4,6.5-5.4,8.4s-3.8,3-5.3,3.5c-1.5,0.5-2.6,0.7-3.4,0.7c-1.5,0-2.7-0.4-3.5-1.3c-0.9-0.8-1.3-2-1.3-3.4
			c0-1.2,0.4-2.6,1.1-4.2c0.7-1.5,1.9-3,3.4-4.4s3.5-2.6,6-3.5s5.3-1.4,8.5-1.4c2.3,0,5.2,0.2,8.9,0.6c3.4,0.4,5.9,0.6,7.6,0.6
			c1.7,0,3.1-0.1,4.2-0.3c1.1-0.2,1.9-0.5,2.4-0.9h0.5c-0.8,0.8-2.1,1.5-3.9,2s-3.5,0.8-4.9,0.8c-0.8,0-2.9-0.3-6.5-0.9
			c-5-0.8-8.2-1.3-9.5-1.3c-2.6,0-5,0.4-7.2,1.2s-4.1,1.9-5.6,3.3s-2.7,2.8-3.4,4.3c-0.8,1.5-1.2,2.9-1.2,4.2c0,1.3,0.4,2.3,1.2,3.1
			c0.8,0.8,1.8,1.1,3.1,1.1c1,0,2.1-0.3,3.4-0.8s2.6-1.3,3.8-2.3c1.3-1,2.5-2.3,3.7-3.9C57.7,20.6,58.7,18.9,59.4,17z"/>
        <path class="st15" d="M56.8,41.2l-0.1-0.5c1.5-1.6,3.2-3.1,5.2-4.5h2.7l-7,9c-0.5,0.6-0.8,1.2-0.9,1.8c-0.1,0.5,0,0.8,0.4,0.8
			c1,0,2.4-0.8,4.4-2.5c1.9-1.7,3.7-3.5,5.4-5.3v0.6c-1.9,2.1-3.7,3.9-5.5,5.5c-1.8,1.5-3.2,2.3-4.3,2.3c-0.6,0-1-0.4-1-1.2
			c0-2.4,1.6-5.4,4.8-9.1c0.2-0.2,0.3-0.4,0.5-0.6c0.1-0.2,0.3-0.4,0.4-0.5C60,38.1,58.3,39.5,56.8,41.2z M67,29
			c0.4,0,0.6,0.3,0.6,0.9c0,0.4-0.1,0.7-0.3,0.9c-0.2,0.2-0.4,0.3-0.7,0.3c-0.5,0-0.8-0.3-0.8-0.8c0-0.3,0.1-0.6,0.3-0.9
			C66.4,29.1,66.7,29,67,29z"/>
        <path class="st15" d="M66.1,40.7l3.4-3.3c-0.1-0.6,0-1.1,0.3-1.5c0.3-0.4,0.7-0.6,1.2-0.6s0.8,0.3,0.8,0.9c0,0.3-0.1,0.5-0.2,0.7
			s-0.3,0.3-0.6,0.3c-0.5,0-0.8-0.1-1-0.4c-0.1,0.3,0,0.6,0.3,0.9c0.3,0.3,0.7,0.4,1.3,0.4c1.4,0,2.4-0.3,3-0.8l1-1
			c1-1,1.7-1.5,2.1-1.5c0.3,0,0.4,0.1,0.4,0.3c0,1.1-1.3,2.1-3.9,2.9L68,44.1c1-0.4,1.9-0.5,2.7-0.5c1.1,0,1.6,0.5,1.6,1.5
			c0,0.4-0.2,0.9-0.7,1.4c-0.2,0.2-0.3,0.4-0.3,0.6c0,0.2,0.1,0.3,0.2,0.3c0.4,0,1.4-0.8,3.1-2.4c1.7-1.6,3.3-3.3,4.9-5.2v0.6
			c-4.6,5.2-7.6,7.8-8.9,7.8c-0.3,0-0.5-0.1-0.8-0.3c-0.2-0.2-0.3-0.5-0.3-0.9c0-0.5,0.3-1.2,1-1.8c0.4-0.3,0.6-0.5,0.7-0.8
			c0.1-0.3-0.2-0.4-0.9-0.4c-1,0-2.3,0.6-3.9,1.7c-0.3,0.3-0.5,0.7-0.8,1.1c-0.3,0.4-0.5,0.7-0.8,1c-0.3,0.3-0.5,0.4-0.7,0.4
			c-0.4,0-0.6-0.2-0.6-0.5c0-0.6,1.1-1.7,3.4-3.1l6.7-6.5c-0.9,0.2-1.6,0.3-2,0.3c-0.9,0-1.5-0.3-1.7-0.8l-3.7,3.6L66.1,40.7
			L66.1,40.7z"/>
        <path class="st15" d="M78.9,41.2l-0.1-0.5c1.5-1.6,3.2-3.1,5.2-4.5h2.7l-7,9c-0.5,0.6-0.8,1.2-0.9,1.8c-0.1,0.5,0,0.8,0.4,0.8
			c1,0,2.4-0.8,4.4-2.5c1.9-1.7,3.7-3.5,5.4-5.3v0.6c-1.9,2.1-3.7,3.9-5.5,5.5c-1.8,1.5-3.2,2.3-4.3,2.3c-0.6,0-1-0.4-1-1.2
			c0-2.4,1.6-5.4,4.8-9.1c0.2-0.2,0.3-0.4,0.5-0.6c0.1-0.2,0.3-0.4,0.4-0.5C82.1,38.1,80.4,39.5,78.9,41.2z M89.1,29
			c0.4,0,0.6,0.3,0.6,0.9c0,0.4-0.1,0.7-0.3,0.9c-0.2,0.2-0.4,0.3-0.7,0.3c-0.5,0-0.8-0.3-0.8-0.8c0-0.3,0.1-0.6,0.3-0.9
			C88.5,29.1,88.8,29,89.1,29z"/>
        <path class="st15" d="M104.7,40.6l-1.5,1.5c-2.4,2.3-4.1,3.9-5.2,4.8c-1.1,0.9-2.1,1.4-3,1.4c-0.6,0-0.9-0.4-0.9-1.1
			c0-0.8,0.3-1.9,0.8-3.3c-2.8,3-4.9,4.5-6.2,4.5c-0.6,0-1.1-0.3-1.4-0.8c-0.4-0.5-0.6-1.3-0.6-2.3c0-1.2,0.3-2.3,0.9-3.4
			s1.4-2.1,2.4-3s2.1-1.5,3.3-2.1c1.2-0.5,2.4-0.8,3.6-0.8c0.6,0,1,0.1,1.3,0.4s0.4,0.6,0.4,1.2c0,0.1,0,0.2,0,0.3s0,0.2-0.1,0.4
			c0,0.2-0.1,0.3-0.1,0.4l1.9-2.5l2.5-0.2l-0.9,1c-0.6,0.9-1.1,1.6-1.5,2.1c-0.4,0.6-0.7,1-1,1.4c-3.1,3.9-4.6,6.1-4.6,6.8
			c0,0.3,0.1,0.5,0.4,0.5c0.4,0,0.9-0.3,1.7-0.8s1.6-1.2,2.5-2s2-1.8,3.2-3s1.9-1.8,2.1-2V40.6z M96.9,36.4c-1.2,0-2.5,0.7-3.9,2
			s-2.7,2.9-3.8,4.6c-1.1,1.7-1.6,2.9-1.6,3.6c0,0.3,0.1,0.6,0.3,0.9c0.2,0.2,0.4,0.3,0.7,0.3c0.8,0,2-0.6,3.5-1.9
			c1.5-1.3,2.9-2.8,4.1-4.4s1.8-2.9,1.8-3.9C98,36.8,97.6,36.4,96.9,36.4z"/>
        <path class="st15" d="M103.9,41.3v-0.5c3-3.2,5.1-4.8,6.3-4.8c0.7,0,1,0.5,1,1.5c0,0.8-0.2,1.5-0.6,2.3s-1.2,2.1-2.5,3.9
			c2.4-2.3,4.5-4.2,6.3-5.6c1.8-1.4,3.3-2.1,4.6-2.1c0.7,0,1,0.5,1,1.6c0,1-0.3,2.1-0.9,3.1s-1.7,2.2-3.1,3.4
			c-1.5,1.3-2.3,2.3-2.3,2.9c0,0.2,0.1,0.4,0.3,0.6c0.2,0.2,0.4,0.3,0.6,0.3c0.7,0,1.6-0.4,2.7-1.3c1.1-0.9,2.4-2,3.7-3.3
			c1.3-1.4,2.4-2.4,3.2-3.3v0.6c-1.2,1.3-2.4,2.5-3.5,3.6s-2.3,2.1-3.4,2.9c-1.1,0.8-2.1,1.2-2.8,1.2c-0.5,0-0.8-0.2-1-0.5
			c-0.2-0.4-0.3-0.7-0.3-1.1c0-0.9,0.3-1.8,0.9-2.9c0.6-1.1,1.4-2.1,2.4-3.2c1.2-1.2,2-2.2,2.5-3c0.5-0.7,0.3-1.1-0.4-1.1
			c-0.9,0-2.3,0.7-4.2,2.2c-1.9,1.4-3.6,3-5.2,4.6s-3.2,3.2-4.6,4.7h-2.3l3.9-5.1c2.9-3.7,4.3-5.7,4.3-6.1c0-0.2-0.1-0.3-0.4-0.3
			C109.2,36.4,107.1,38,103.9,41.3z"/>
        <path class="st15" d="M136.7,39.9v0.6c-1.1,1.5-2.3,2.3-3.7,2.3c-0.1,0-0.3,0-0.4-0.1c-0.1,0-0.3,0-0.5-0.1
			c-3.1,3.8-5.9,5.7-8.2,5.7c-0.4,0-0.8-0.1-1.2-0.4c-0.4-0.3-0.6-0.6-0.8-1c-0.2-0.4-0.3-0.9-0.3-1.5c0-1.5,0.6-3,1.7-4.5
			c1.2-1.5,2.6-2.6,4.2-3.6c1.6-0.9,3.1-1.4,4.3-1.4c1.3,0,2,0.7,2,2.2c0,1.2-0.5,2.5-1.4,4.1c0.2,0.1,0.4,0.1,0.6,0.1
			C134.4,42.3,135.6,41.5,136.7,39.9z M132,36.4c-1.1,0-2.4,0.7-3.8,2.2c-1.4,1.4-2.7,3-3.8,4.8c-1.1,1.7-1.7,2.8-1.7,3.2
			s0.1,0.7,0.4,0.9s0.6,0.4,1.1,0.4c1,0,2.3-0.6,3.8-1.8s2.8-2.6,3.9-4.2c1.1-1.6,1.7-2.9,1.7-3.8c0-0.5-0.1-0.8-0.4-1.1
			C132.8,36.5,132.4,36.4,132,36.4z"/>
	</g>
</g>
    <g id="Martina_outline" class="martina">
	<g>
		<path class="st15" d="M152.9,80.3c1.2-1.5,3-3.7,5.5-6.6s4.5-5.2,6-6.8c1.7-1.8,3.1-3.3,4.3-4.6s2.2-2.3,3-3.1s1.8-1.6,2.8-2.4
			c1-0.8,2.1-1.7,3.4-2.6l0.4,0.3c-3.3,4.3-5.4,7-6.1,8.1l-0.6,0.8c-0.1,0.2-0.4,0.5-0.8,1.1c-2.8,3.7-5.8,8-9.1,12.6
			c-2.6,3.8-4.5,6.5-5.5,8.2c-1.1,1.6-1.9,3-2.4,4s-0.9,1.9-1.1,2.6c-0.2,0.7-0.2,1.1,0.1,1.1c0.4,0,1-0.4,1.9-1.3s1.9-2,3-3.3
			s2.8-3.4,5.1-6.3c0.5-0.7,1.1-1.4,1.7-2.1c0.6-0.7,1.2-1.5,2-2.5c0.8-0.9,1.5-1.8,2.1-2.6c2.7-3.3,4.7-5.8,6.1-7.3
			c1.4-1.5,3-3.3,5-5.4l1.7-1.7c2.5-2.6,4.8-4.6,6.9-6l0.4,0.3l-1.2,1.7c-4.1,5.7-7.8,10.9-10.9,15.4c-3.1,4.5-5.6,8.1-7.3,10.7
			s-3.1,4.8-4.1,6.6s-1.5,2.9-1.5,3.3c0,0.5,0.2,0.8,0.6,0.8c0.7,0,1.6-0.5,2.8-1.5s2.6-2.4,4.3-4.1s3-3.1,4-4.2v0.6
			c-2.5,2.7-4.4,4.7-5.5,5.8s-2.2,2.1-3.2,2.8s-1.8,1-2.6,1c-0.7,0-1.1-0.5-1.1-1.4c0-1.8,0.6-4,1.7-6.4s2.7-5,4.5-7.7
			c1.9-2.7,4.2-5.7,7-9.2L187,55.8c-2,1.3-5.7,4.8-10.9,10.6c-0.2,0.2-0.5,0.6-0.9,1c-0.4,0.5-1,1.2-1.9,2.2s-2,2.4-3.4,4.1
			c-1.4,1.8-2.8,3.4-4.1,5l-0.9,1.1c-0.2,0.4-0.5,0.7-0.9,1.1c-2.5,3.2-4.3,5.5-5.6,7c-1.2,1.5-2.4,2.8-3.4,3.8
			c-1.1,1-1.9,1.6-2.5,1.6c-0.1,0-0.3-0.1-0.4-0.4s-0.2-0.5-0.2-0.8c0-1.5,0.4-3.2,1.2-5s1.8-3.7,2.9-5.5s2.3-3.5,3.6-5
			c3.2-4.2,5.7-7.4,7.4-9.5s3.7-4.5,6.1-7.2l4.2-4.6c-1.8,1.3-3.2,2.4-4.1,3.3c-0.9,0.8-2.3,2.1-4.1,3.9c-0.8,0.8-1.9,2-3.4,3.7
			s-2.9,3.2-4.2,4.6c-1.2,1.4-2.5,2.9-3.9,4.5s-2.8,3.4-4.3,5.3c-2,2.5-3.4,4.2-4.2,5.3c-0.8,1-1.9,2.2-3.2,3.4
			c-1.3,1.2-2.7,2.2-4.2,2.9c-1.5,0.7-3,1.1-4.7,1.1c-1.2,0-2.1-0.3-2.8-0.9c-0.7-0.6-1.1-1.4-1.1-2.4c0-0.7,0.1-1.3,0.4-1.7
			c0.3-0.5,0.7-0.7,1.3-0.7c0.3,0,0.6,0.1,0.9,0.4c0.3,0.3,0.4,0.6,0.4,0.9s-0.1,0.6-0.3,0.8c-0.2,0.2-0.4,0.4-0.7,0.4
			c-0.7,0-1-0.5-0.8-1.4c0-0.1,0-0.2-0.1-0.3c-0.2,0-0.4,0.2-0.5,0.5c-0.1,0.4-0.2,0.7-0.2,1.1c0,0.8,0.3,1.4,1,1.9
			c0.6,0.5,1.4,0.8,2.4,0.8c1.7,0,3.3-0.4,4.8-1.1s2.8-1.6,4-2.7s2.1-2.1,2.8-3C149.3,85.1,150.8,83.2,152.9,80.3z"/>
        <path class="st15" d="M191.2,83.8l-1.5,1.5c-2.4,2.3-4.1,3.9-5.2,4.8c-1.1,0.9-2.1,1.4-3,1.4c-0.6,0-0.9-0.4-0.9-1.1
			c0-0.8,0.3-1.9,0.8-3.3c-2.8,3-4.9,4.5-6.2,4.5c-0.6,0-1.1-0.3-1.4-0.8s-0.6-1.3-0.6-2.3c0-1.2,0.3-2.3,0.9-3.4
			c0.6-1.1,1.4-2.1,2.4-3s2.1-1.5,3.3-2.1c1.2-0.5,2.4-0.8,3.6-0.8c0.6,0,1,0.1,1.3,0.4c0.3,0.2,0.4,0.6,0.4,1.2c0,0.1,0,0.2,0,0.3
			c0,0.1,0,0.2-0.1,0.4c0,0.2-0.1,0.3-0.1,0.4l1.9-2.5l2.5-0.2l-0.8,1.1c-0.6,0.9-1.1,1.6-1.5,2.1c-0.4,0.6-0.7,1-1,1.4
			c-3.1,3.9-4.6,6.1-4.6,6.8c0,0.3,0.1,0.5,0.4,0.5c0.4,0,0.9-0.3,1.7-0.8c0.7-0.5,1.6-1.2,2.5-2s2-1.8,3.2-3s1.9-1.8,2.1-2
			L191.2,83.8L191.2,83.8z M183.4,79.6c-1.2,0-2.5,0.7-3.9,2s-2.7,2.9-3.8,4.6s-1.6,2.9-1.6,3.6c0,0.3,0.1,0.6,0.3,0.9
			c0.2,0.2,0.4,0.3,0.7,0.3c0.8,0,2-0.6,3.5-1.9s2.9-2.8,4.1-4.4c1.2-1.6,1.8-2.9,1.8-3.9C184.5,80,184.1,79.6,183.4,79.6z"/>
        <path class="st15" d="M190.4,84c0.9-0.8,1.8-1.7,2.6-2.5c0.9-0.8,1.7-1.6,2.6-2.4c-0.2-0.7-0.1-1.3,0.2-1.9s0.7-0.8,1.1-0.8
			c0.3,0,0.5,0.1,0.7,0.3s0.3,0.4,0.3,0.6c0,0.3-0.1,0.5-0.3,0.7s-0.4,0.3-0.6,0.3c-0.2,0-0.6-0.2-1-0.7c-0.1,0.2-0.2,0.4-0.2,0.8
			c0,0.3,0.1,0.5,0.3,0.8c0.2,0.2,0.4,0.4,0.7,0.4c0.2,0,0.4,0,0.8-0.1c0.4-0.1,0.6-0.1,0.7-0.1c0.2,0,0.3,0.2,0.4,0.5
			c0.1,0.3,0.2,0.8,0.2,1.2c0,0.4-0.2,1-0.7,1.6c-0.5,0.7-1.3,1.8-2.5,3.3s-2,2.6-2.4,3.2c-0.5,0.6-0.7,1.1-0.7,1.5s0.2,0.5,0.6,0.5
			c0.5,0,1.7-0.7,3.5-2.2s3.9-3.4,6.3-5.7v0.6c-5.3,5.2-8.6,7.8-10,7.8c-0.5,0-0.8-0.4-0.8-1.1c0-1.1,0.2-2.1,0.5-3
			c0.4-1,1-2,1.9-3.2L198,80c-0.4,0.2-0.9,0.3-1.4,0.2c-0.5,0-0.8-0.2-1-0.5c-2.6,2.5-4.4,4.2-5.4,5V84H190.4z"/>
        <path class="st15" d="M212.5,74.4l4.9-6.4h2.5l-4.9,6.4h3.7l-0.3,0.6h-3.8l-7.2,9.4c-0.8,1-1.7,2.2-2.6,3.6
			c-1,1.4-1.4,2.2-1.4,2.3c0,0.5,0.2,0.7,0.6,0.7c1.6,0,5.1-2.6,10.4-7.9v0.6l-1.6,1.6c-4.1,4.1-7,6.2-8.9,6.2
			c-0.5,0-0.8-0.1-1.1-0.4s-0.4-0.6-0.4-1c0-0.9,0.6-2.4,1.7-4.5s3.3-5.1,6.5-8.8c-2,1.5-4.8,4.2-8.4,7.8V84
			c1.2-1.3,2.7-2.8,4.5-4.5s3.5-3.2,5.2-4.5h-2.2l0.4-0.6H212.5z"/>
        <path class="st15" d="M213.8,84.4l-0.1-0.5c1.5-1.6,3.2-3.1,5.2-4.5h2.7l-7,9c-0.5,0.6-0.8,1.2-0.9,1.8s0,0.8,0.4,0.8
			c1,0,2.4-0.8,4.4-2.5c1.9-1.7,3.7-3.5,5.4-5.3v0.6c-1.9,2.1-3.7,3.9-5.5,5.5c-1.8,1.5-3.2,2.3-4.3,2.3c-0.6,0-1-0.4-1-1.2
			c0-2.4,1.6-5.4,4.8-9.1c0.2-0.2,0.3-0.4,0.5-0.6s0.3-0.4,0.4-0.5C217,81.3,215.3,82.8,213.8,84.4z M224,72.2
			c0.4,0,0.6,0.3,0.6,0.9c0,0.4-0.1,0.7-0.3,0.9c-0.2,0.2-0.4,0.3-0.7,0.3c-0.5,0-0.8-0.3-0.8-0.8c0-0.3,0.1-0.6,0.3-0.9
			C223.4,72.4,223.7,72.2,224,72.2z"/>
        <path class="st15" d="M223.1,84.5V84c3-3.2,5.1-4.8,6.3-4.8c0.7,0,1,0.5,1,1.5c0,0.8-0.2,1.5-0.6,2.3c-0.4,0.8-1.2,2.1-2.5,3.9
			c2.4-2.3,4.5-4.2,6.3-5.6s3.3-2.1,4.6-2.1c0.7,0,1,0.5,1,1.6c0,1-0.3,2.1-0.9,3.1s-1.7,2.2-3.1,3.4c-1.5,1.3-2.3,2.3-2.3,2.9
			c0,0.2,0.1,0.4,0.3,0.6s0.4,0.3,0.6,0.3c0.7,0,1.6-0.4,2.7-1.3s2.4-2,3.7-3.3s2.4-2.4,3.2-3.3v0.6c-1.2,1.3-2.4,2.5-3.5,3.6
			s-2.3,2.1-3.4,2.9s-2.1,1.2-2.8,1.2c-0.5,0-0.8-0.2-1-0.5c-0.2-0.4-0.3-0.7-0.3-1.1c0-0.9,0.3-1.8,0.9-2.9
			c0.6-1.1,1.4-2.1,2.4-3.2c1.2-1.2,2-2.2,2.5-3s0.3-1.1-0.4-1.1c-0.9,0-2.3,0.7-4.2,2.2c-1.9,1.4-3.6,3-5.2,4.6s-3.2,3.2-4.6,4.7
			h-2.3l3.9-5.1c2.9-3.7,4.3-5.7,4.3-6.1c0-0.2-0.1-0.3-0.4-0.3C228.4,79.6,226.3,81.3,223.1,84.5z"/>
        <path class="st15" d="M259.1,83.8l-1.5,1.5c-2.4,2.3-4.1,3.9-5.2,4.8c-1.1,0.9-2.1,1.4-3,1.4c-0.6,0-0.9-0.4-0.9-1.1
			c0-0.8,0.3-1.9,0.8-3.3c-2.8,3-4.9,4.5-6.2,4.5c-0.6,0-1.1-0.3-1.4-0.8c-0.4-0.5-0.6-1.3-0.6-2.3c0-1.2,0.3-2.3,0.9-3.4
			c0.6-1.1,1.4-2.1,2.4-3s2.1-1.5,3.3-2.1c1.2-0.5,2.4-0.8,3.6-0.8c0.6,0,1,0.1,1.3,0.4s0.4,0.6,0.4,1.2c0,0.1,0,0.2,0,0.3
			s0,0.2-0.1,0.4c0,0.2-0.1,0.3-0.1,0.4l1.9-2.5l2.5-0.2l-0.8,1.1c-0.6,0.9-1.1,1.6-1.5,2.1c-0.4,0.6-0.7,1-1,1.4
			c-3.1,3.9-4.6,6.1-4.6,6.8c0,0.3,0.1,0.5,0.4,0.5c0.4,0,0.9-0.3,1.7-0.8c0.7-0.5,1.6-1.2,2.5-2s2-1.8,3.2-3c1.2-1.2,1.9-1.8,2.1-2
			L259.1,83.8L259.1,83.8z M251.3,79.6c-1.2,0-2.5,0.7-3.9,2s-2.7,2.9-3.8,4.6s-1.6,2.9-1.6,3.6c0,0.3,0.1,0.6,0.3,0.9
			c0.2,0.2,0.4,0.3,0.7,0.3c0.8,0,2-0.6,3.5-1.9s2.9-2.8,4.1-4.4c1.2-1.6,1.8-2.9,1.8-3.9C252.4,80,252,79.6,251.3,79.6z"/>
	</g>
</g>
    <g class="st2">
	<text transform="matrix(0.8622 0 0 1 22.9102 49.5425)" class="st16 st17 st18">Tiziano</text>
        <text transform="matrix(0.8622 0 0 1 22.9102 49.5425)" class="st19 st17 st18">Tiziano</text>
</g>
    <g class="st2">
	<text transform="matrix(0.8622 0 0 1 131.313 92.7861)" class="st16 st17 st18">Martina</text>
        <text transform="matrix(0.8622 0 0 1 131.313 92.7861)" class="st19 st17 st18">Martina</text>
</g>
    <script type="application/ecmascript" xmlns="http://www.w3.org/2000/svg">//<![CDATA[
<!--            debugger-->
        var tiziano = document.querySelector('#Tiziano_outline');
        var martina = document.querySelector('#Martina_outline');
        var ampersand = document.querySelector('#Ampersand');
        setTimeout(()=>{
        	tiziano.classList.add("tiziano--show")
        	martina.classList.add("martina--show")
        	ampersand.classList.add("ampersand--show")

        },200)

	]]>
</script>
</svg>
