<svg xmlns="http://www.w3.org/2000/svg" viewBox="0 0 126.6 40"><defs><style>.cls-1{fill:#99a598;stroke:#99a598;stroke-linecap:square;stroke-linejoin:round;stroke-width:0.5px;}</style></defs><g id="Livello_2" data-name="Livello 2"><g id="Livello_1-2" data-name="Livello 1"><g id="Martina_outline" data-name="Martina outline"><path class="cls-1" d="M20.05,26.35c1.2-1.5,3-3.7,5.5-6.6s4.5-5.2,6-6.8c1.7-1.8,3.1-3.3,4.3-4.6s2.2-2.3,3-3.1a34.82,34.82,0,0,1,2.8-2.4c1-.8,2.1-1.7,3.4-2.6l.4.3c-3.3,4.3-5.4,7-6.1,8.1l-.6.8c-.1.2-.4.5-.8,1.1-2.8,3.7-5.8,8-9.1,12.6-2.6,3.8-4.5,6.5-5.5,8.2a34.67,34.67,0,0,0-2.4,4,16.52,16.52,0,0,0-1.1,2.6c-.2.7-.2,1.1.1,1.1s1-.4,1.9-1.3,1.9-2,3-3.3,2.8-3.4,5.1-6.3c.5-.7,1.1-1.4,1.7-2.1s1.2-1.5,2-2.5,1.5-1.8,2.1-2.6c2.7-3.3,4.7-5.8,6.1-7.3s3-3.3,5-5.4l1.7-1.7a43.12,43.12,0,0,1,6.9-6l.4.3-1.2,1.7c-4.1,5.7-7.8,10.9-10.9,15.4s-5.6,8.1-7.3,10.7-3.1,4.8-4.1,6.6a11.7,11.7,0,0,0-1.5,3.3c0,.5.2.8.6.8a5.1,5.1,0,0,0,2.8-1.5c1.2-1,2.6-2.4,4.3-4.1s3-3.1,4-4.2v.6c-2.5,2.7-4.4,4.7-5.5,5.8a25.58,25.58,0,0,1-3.2,2.8,4.5,4.5,0,0,1-2.6,1c-.7,0-1.1-.5-1.1-1.4a16.1,16.1,0,0,1,1.7-6.4,58.46,58.46,0,0,1,4.5-7.7c1.9-2.7,4.2-5.7,7-9.2l10.8-13.3c-2,1.3-5.7,4.8-10.9,10.6-.2.2-.5.6-.9,1s-1,1.2-1.9,2.2-2,2.4-3.4,4.1-2.8,3.4-4.1,5l-.9,1.1a4.36,4.36,0,0,1-.9,1.1c-2.5,3.2-4.3,5.5-5.6,7a46.79,46.79,0,0,1-3.4,3.8c-1.1,1-1.9,1.6-2.5,1.6-.1,0-.3-.1-.4-.4a2.35,2.35,0,0,1-.2-.8,12.52,12.52,0,0,1,1.2-5,48.6,48.6,0,0,1,2.9-5.5,37.53,37.53,0,0,1,3.6-5c3.2-4.2,5.7-7.4,7.4-9.5s3.7-4.5,6.1-7.2l4.2-4.6a35.91,35.91,0,0,0-4.1,3.3c-.9.8-2.3,2.1-4.1,3.9-.8.8-1.9,2-3.4,3.7s-2.9,3.2-4.2,4.6-2.5,2.9-3.9,4.5-2.8,3.4-4.3,5.3c-2,2.5-3.4,4.2-4.2,5.3a31.85,31.85,0,0,1-3.2,3.4,16.63,16.63,0,0,1-4.2,2.9,10.82,10.82,0,0,1-4.7,1.1,4.1,4.1,0,0,1-2.8-.9A3,3,0,0,1,.25,36a2.86,2.86,0,0,1,.4-1.7,1.36,1.36,0,0,1,1.3-.7,1.22,1.22,0,0,1,.9.4,1.22,1.22,0,0,1,.4.9,1.14,1.14,0,0,1-.3.8,1,1,0,0,1-.7.4c-.7,0-1-.5-.8-1.4a.37.37,0,0,0-.1-.3c-.2,0-.4.2-.5.5A4.25,4.25,0,0,0,.65,36a2.17,2.17,0,0,0,1,1.9,3.65,3.65,0,0,0,2.4.8,11.25,11.25,0,0,0,4.8-1.1,15.64,15.64,0,0,0,4-2.7,24.35,24.35,0,0,0,2.8-3A52,52,0,0,0,20.05,26.35Z"/><path class="cls-1" d="M58.35,29.85l-1.5,1.5c-2.4,2.3-4.1,3.9-5.2,4.8a5.06,5.06,0,0,1-3,1.4c-.6,0-.9-.4-.9-1.1a11,11,0,0,1,.8-3.3c-2.8,3-4.9,4.5-6.2,4.5a1.6,1.6,0,0,1-1.4-.8,4.53,4.53,0,0,1-.6-2.3,6.92,6.92,0,0,1,.9-3.4,11.33,11.33,0,0,1,2.4-3,14.22,14.22,0,0,1,3.3-2.1,9.37,9.37,0,0,1,3.6-.8,1.7,1.7,0,0,1,1.3.4c.3.2.4.6.4,1.2v.3a.76.76,0,0,1-.1.4c0,.2-.1.3-.1.4l1.9-2.5,2.5-.2-.8,1.1q-.9,1.35-1.5,2.1c-.4.6-.7,1-1,1.4-3.1,3.9-4.6,6.1-4.6,6.8,0,.3.1.5.4.5a4,4,0,0,0,1.7-.8,31.07,31.07,0,0,0,2.5-2c.9-.8,2-1.8,3.2-3s1.9-1.8,2.1-2l-.1.5Zm-7.8-4.3a6.11,6.11,0,0,0-3.9,2,24.5,24.5,0,0,0-3.8,4.6,8.18,8.18,0,0,0-1.6,3.6,1.61,1.61,0,0,0,.3.9.91.91,0,0,0,.7.3c.8,0,2-.6,3.5-1.9a28.51,28.51,0,0,0,4.1-4.4,7.26,7.26,0,0,0,1.8-3.9C51.65,26,51.25,25.55,50.55,25.55Z"/><path class="cls-1" d="M57.55,30c.9-.8,1.8-1.7,2.6-2.5s1.7-1.6,2.6-2.4a2.49,2.49,0,0,1,.2-1.9,1.21,1.21,0,0,1,1.1-.8.91.91,0,0,1,.7.3.86.86,0,0,1,.3.6.91.91,0,0,1-.3.7.86.86,0,0,1-.6.3,1.62,1.62,0,0,1-1-.7,1.55,1.55,0,0,0-.2.8,1.33,1.33,0,0,0,.3.8,1,1,0,0,0,.7.4,2.81,2.81,0,0,0,.8-.1,2.64,2.64,0,0,1,.7-.1c.2,0,.3.2.4.5a4.3,4.3,0,0,1,.2,1.2,2.69,2.69,0,0,1-.7,1.6c-.5.7-1.3,1.8-2.5,3.3s-2,2.6-2.4,3.2a2.47,2.47,0,0,0-.7,1.5c0,.4.2.5.6.5s1.7-.7,3.5-2.2,3.9-3.4,6.3-5.7V30c-5.3,5.2-8.6,7.8-10,7.8-.5,0-.8-.4-.8-1.1a9.43,9.43,0,0,1,.5-3,14,14,0,0,1,1.9-3.2l3.4-4.5a2.2,2.2,0,0,1-1.4.2,1.1,1.1,0,0,1-1-.5c-2.6,2.5-4.4,4.2-5.4,5V30Z"/><path class="cls-1" d="M79.65,20.45l4.9-6.4h2.5l-4.9,6.4h3.7l-.3.6h-3.8l-7.2,9.4a42.78,42.78,0,0,0-2.6,3.6,10.81,10.81,0,0,0-1.4,2.3c0,.5.2.7.6.7,1.6,0,5.1-2.6,10.4-7.9v.6L80,31.35c-4.1,4.1-7,6.2-8.9,6.2a1.37,1.37,0,0,1-1.1-.4,1.28,1.28,0,0,1-.4-1c0-.9.6-2.4,1.7-4.5a52.54,52.54,0,0,1,6.5-8.8,94.57,94.57,0,0,0-8.4,7.8V30q1.8-1.95,4.5-4.5a66.46,66.46,0,0,1,5.2-4.5h-2.2l.4-.6,2.4.1Z"/><path class="cls-1" d="M81,30.45l-.1-.5a33,33,0,0,1,5.2-4.5h2.7l-7,9a3.82,3.82,0,0,0-.9,1.8c-.1.6,0,.8.4.8,1,0,2.4-.8,4.4-2.5s3.7-3.5,5.4-5.3v.6a71.23,71.23,0,0,1-5.5,5.5c-1.8,1.5-3.2,2.3-4.3,2.3-.6,0-1-.4-1-1.2,0-2.4,1.6-5.4,4.8-9.1.2-.2.3-.4.5-.6s.3-.4.4-.5A24.79,24.79,0,0,0,81,30.45Zm10.2-12.2q.6,0,.6.9a1.22,1.22,0,0,1-.3.9.91.91,0,0,1-.7.3.74.74,0,0,1-.8-.8,1.61,1.61,0,0,1,.3-.9A2.26,2.26,0,0,1,91.15,18.25Z"/><path class="cls-1" d="M90.25,30.45V30q4.5-4.8,6.3-4.8c.7,0,1,.5,1,1.5A4.93,4.93,0,0,1,97,29a31.34,31.34,0,0,1-2.5,3.9c2.4-2.3,4.5-4.2,6.3-5.6s3.3-2.1,4.6-2.1c.7,0,1,.5,1,1.6a6.13,6.13,0,0,1-.9,3.1,15.36,15.36,0,0,1-3.1,3.4c-1.5,1.3-2.3,2.3-2.3,2.9a1.06,1.06,0,0,0,.9.9,4.66,4.66,0,0,0,2.7-1.3,49.37,49.37,0,0,0,3.7-3.3c1.3-1.3,2.4-2.4,3.2-3.3v.6c-1.2,1.3-2.4,2.5-3.5,3.6a29.18,29.18,0,0,1-3.4,2.9,5.32,5.32,0,0,1-2.8,1.2,1.1,1.1,0,0,1-1-.5,2.28,2.28,0,0,1-.3-1.1,6,6,0,0,1,.9-2.9,16.69,16.69,0,0,1,2.4-3.2,17.72,17.72,0,0,0,2.5-3c.5-.8.3-1.1-.4-1.1-.9,0-2.3.7-4.2,2.2a46.15,46.15,0,0,0-5.2,4.6c-1.6,1.6-3.2,3.2-4.6,4.7h-2.3l3.9-5.1c2.9-3.7,4.3-5.7,4.3-6.1,0-.2-.1-.3-.4-.3C95.55,25.55,93.45,27.35,90.25,30.45Z"/><path class="cls-1" d="M126.25,29.85l-1.5,1.5c-2.4,2.3-4.1,3.9-5.2,4.8a5.06,5.06,0,0,1-3,1.4c-.6,0-.9-.4-.9-1.1a11,11,0,0,1,.8-3.3c-2.8,3-4.9,4.5-6.2,4.5a1.6,1.6,0,0,1-1.4-.8,3.71,3.71,0,0,1-.6-2.3,6.92,6.92,0,0,1,.9-3.4,11.33,11.33,0,0,1,2.4-3,14.22,14.22,0,0,1,3.3-2.1,9.37,9.37,0,0,1,3.6-.8,1.7,1.7,0,0,1,1.3.4,1.46,1.46,0,0,1,.4,1.2v.3a.76.76,0,0,1-.1.4c0,.2-.1.3-.1.4l1.9-2.5,2.5-.2-.8,1.1q-.9,1.35-1.5,2.1c-.4.6-.7,1-1,1.4-3.1,3.9-4.6,6.1-4.6,6.8,0,.3.1.5.4.5a4,4,0,0,0,1.7-.8,31.07,31.07,0,0,0,2.5-2c.9-.8,2-1.8,3.2-3s1.9-1.8,2.1-2l-.1.5Zm-7.8-4.3a6.11,6.11,0,0,0-3.9,2,24.5,24.5,0,0,0-3.8,4.6,8.18,8.18,0,0,0-1.6,3.6,1.61,1.61,0,0,0,.3.9.91.91,0,0,0,.7.3c.8,0,2-.6,3.5-1.9a28.51,28.51,0,0,0,4.1-4.4,7.26,7.26,0,0,0,1.8-3.9C119.55,26,119.15,25.55,118.45,25.55Z"/></g></g></g></svg>