<svg xmlns="http://www.w3.org/2000/svg" viewBox="0 0 112.3 39.1"><defs><style>.cls-1{fill:#99a598;stroke:#99a598;stroke-linecap:square;stroke-linejoin:round;stroke-width:0.5px;}</style></defs><g id="Livello_2" data-name="Livello 2"><g id="Livello_2-2" data-name="Livello 2"><g id="Tiziano_outline" data-name="Tiziano outline"><path class="cls-1" d="M29.05,20.55l.8-1.3c4.9-7.9,9.8-13.2,14.9-16.1l.3.3a43.69,43.69,0,0,0-4.7,3.4,21.42,21.42,0,0,0-3.7,4.2,51,51,0,0,0-3.1,5.2c-1.7,3.5-3,6.1-3.9,7.7a29.06,29.06,0,0,1-2.8,4.3,31.92,31.92,0,0,1-4.4,4.6,23.43,23.43,0,0,1-4.9,3.3,25.36,25.36,0,0,1-5.2,2,20,20,0,0,1-5.4.7,8.72,8.72,0,0,1-5.1-1.2,3.59,3.59,0,0,1-1.6-3.1,2.88,2.88,0,0,1,.6-1.9,1.57,1.57,0,0,1,1.3-.7c.9,0,1.3.4,1.3,1.3a1.14,1.14,0,0,1-.3.8,1,1,0,0,1-.7.4c-.9,0-1.2-.6-.9-1.9a1.78,1.78,0,0,0-.7.8,3.73,3.73,0,0,0-.2,1.2,3.34,3.34,0,0,0,1.6,2.8,7.94,7.94,0,0,0,4.4,1.1,19.8,19.8,0,0,0,8-1.7,15.86,15.86,0,0,0,5.7-3.9,23.21,23.21,0,0,0,2.1-2.5c.6-.8,1.5-2,2.6-3.6S27.55,23.15,29.05,20.55Zm5.7-14.7h.4a25.39,25.39,0,0,1-5.4,8.4,14.94,14.94,0,0,1-5.3,3.5,11.26,11.26,0,0,1-3.4.7,4.46,4.46,0,0,1-3.5-1.3,4.38,4.38,0,0,1-1.3-3.4,10.92,10.92,0,0,1,1.1-4.2,14.93,14.93,0,0,1,3.4-4.4,17.29,17.29,0,0,1,6-3.5,24.83,24.83,0,0,1,8.5-1.4,85.8,85.8,0,0,1,8.9.6,71.06,71.06,0,0,0,7.6.6,24.18,24.18,0,0,0,4.2-.3,5.47,5.47,0,0,0,2.4-.9h.5a8.85,8.85,0,0,1-3.9,2,19.13,19.13,0,0,1-4.9.8,61,61,0,0,1-6.5-.9c-5-.8-8.2-1.3-9.5-1.3a20.92,20.92,0,0,0-7.2,1.2,16.29,16.29,0,0,0-5.6,3.3,14.61,14.61,0,0,0-3.4,4.3,9,9,0,0,0-1.2,4.2,4.14,4.14,0,0,0,1.2,3.1,4.08,4.08,0,0,0,3.1,1.1,9.73,9.73,0,0,0,3.4-.8,13.79,13.79,0,0,0,3.8-2.3,19.88,19.88,0,0,0,3.7-3.9A20.38,20.38,0,0,0,34.75,5.85Z"/><path class="cls-1" d="M32.15,30.05l-.1-.5a33,33,0,0,1,5.2-4.5H40l-7,9a3.82,3.82,0,0,0-.9,1.8c-.1.5,0,.8.4.8,1,0,2.4-.8,4.4-2.5s3.7-3.5,5.4-5.3v.6a71.23,71.23,0,0,1-5.5,5.5c-1.8,1.5-3.2,2.3-4.3,2.3-.6,0-1-.4-1-1.2,0-2.4,1.6-5.4,4.8-9.1.2-.2.3-.4.5-.6a2.18,2.18,0,0,1,.4-.5A21.9,21.9,0,0,0,32.15,30.05Zm10.2-12.2q.6,0,.6.9a1.22,1.22,0,0,1-.3.9.91.91,0,0,1-.7.3.74.74,0,0,1-.8-.8,1.61,1.61,0,0,1,.3-.9A1.22,1.22,0,0,1,42.35,17.85Z"/><path class="cls-1" d="M41.45,29.55l3.4-3.3a1.88,1.88,0,0,1,.3-1.5,1.43,1.43,0,0,1,1.2-.6c.5,0,.8.3.8.9a1.45,1.45,0,0,1-.2.7.6.6,0,0,1-.6.3,1.05,1.05,0,0,1-1-.4.86.86,0,0,0,.3.9A1.7,1.7,0,0,0,47,27a4.68,4.68,0,0,0,3-.8l1-1q1.5-1.5,2.1-1.5c.3,0,.4.1.4.3,0,1.1-1.3,2.1-3.9,2.9L43.35,33a7.07,7.07,0,0,1,2.7-.5c1.1,0,1.6.5,1.6,1.5a2.06,2.06,0,0,1-.7,1.4.86.86,0,0,0-.3.6c0,.2.1.3.2.3.4,0,1.4-.8,3.1-2.4a61.13,61.13,0,0,0,4.9-5.2v.6c-4.6,5.2-7.6,7.8-8.9,7.8a1.33,1.33,0,0,1-.8-.3,1.22,1.22,0,0,1-.3-.9,2.56,2.56,0,0,1,1-1.8,1.68,1.68,0,0,0,.7-.8c.1-.3-.2-.4-.9-.4a7.76,7.76,0,0,0-3.9,1.7,10.47,10.47,0,0,0-.8,1.1,8.74,8.74,0,0,1-.8,1c-.3.3-.5.4-.7.4-.4,0-.6-.2-.6-.5,0-.6,1.1-1.7,3.4-3.1L49,27a10.64,10.64,0,0,1-2,.3c-.9,0-1.5-.3-1.7-.8l-3.7,3.6-.1-.5Z"/><path class="cls-1" d="M54.25,30.05l-.1-.5a33,33,0,0,1,5.2-4.5h2.7l-7,9a3.82,3.82,0,0,0-.9,1.8c-.1.5,0,.8.4.8,1,0,2.4-.8,4.4-2.5s3.7-3.5,5.4-5.3v.6a71.23,71.23,0,0,1-5.5,5.5c-1.8,1.5-3.2,2.3-4.3,2.3-.6,0-1-.4-1-1.2,0-2.4,1.6-5.4,4.8-9.1.2-.2.3-.4.5-.6a2.18,2.18,0,0,1,.4-.5A21.9,21.9,0,0,0,54.25,30.05Zm10.2-12.2q.6,0,.6.9a1.22,1.22,0,0,1-.3.9.91.91,0,0,1-.7.3.74.74,0,0,1-.8-.8,1.61,1.61,0,0,1,.3-.9A1.22,1.22,0,0,1,64.45,17.85Z"/><path class="cls-1" d="M80.05,29.45,78.55,31c-2.4,2.3-4.1,3.9-5.2,4.8a5.06,5.06,0,0,1-3,1.4c-.6,0-.9-.4-.9-1.1a11,11,0,0,1,.8-3.3c-2.8,3-4.9,4.5-6.2,4.5a1.6,1.6,0,0,1-1.4-.8,3.71,3.71,0,0,1-.6-2.3,6.92,6.92,0,0,1,.9-3.4,11.33,11.33,0,0,1,2.4-3,14.22,14.22,0,0,1,3.3-2.1,9.37,9.37,0,0,1,3.6-.8,1.7,1.7,0,0,1,1.3.4,1.46,1.46,0,0,1,.4,1.2v.3a.76.76,0,0,1-.1.4c0,.2-.1.3-.1.4l1.9-2.5,2.5-.2-.9,1q-.9,1.35-1.5,2.1c-.4.6-.7,1-1,1.4-3.1,3.9-4.6,6.1-4.6,6.8,0,.3.1.5.4.5a4,4,0,0,0,1.7-.8,19.84,19.84,0,0,0,2.5-2c.9-.8,2-1.8,3.2-3s1.9-1.8,2.1-2v.6Zm-7.8-4.2a6.11,6.11,0,0,0-3.9,2,24.5,24.5,0,0,0-3.8,4.6,8.18,8.18,0,0,0-1.6,3.6,1.61,1.61,0,0,0,.3.9.91.91,0,0,0,.7.3c.8,0,2-.6,3.5-1.9a28.51,28.51,0,0,0,4.1-4.4,7.26,7.26,0,0,0,1.8-3.9C73.35,25.65,73,25.25,72.25,25.25Z"/><path class="cls-1" d="M79.25,30.15v-.5q4.5-4.8,6.3-4.8c.7,0,1,.5,1,1.5a4.93,4.93,0,0,1-.6,2.3,31.34,31.34,0,0,1-2.5,3.9c2.4-2.3,4.5-4.2,6.3-5.6s3.3-2.1,4.6-2.1c.7,0,1,.5,1,1.6a6.13,6.13,0,0,1-.9,3.1,15.36,15.36,0,0,1-3.1,3.4c-1.5,1.3-2.3,2.3-2.3,2.9a1.06,1.06,0,0,0,.9.9,4.66,4.66,0,0,0,2.7-1.3,49.37,49.37,0,0,0,3.7-3.3c1.3-1.4,2.4-2.4,3.2-3.3v.6c-1.2,1.3-2.4,2.5-3.5,3.6a29.18,29.18,0,0,1-3.4,2.9,5.32,5.32,0,0,1-2.8,1.2,1.1,1.1,0,0,1-1-.5,2.28,2.28,0,0,1-.3-1.1,6,6,0,0,1,.9-2.9,16.69,16.69,0,0,1,2.4-3.2,17.72,17.72,0,0,0,2.5-3c.5-.7.3-1.1-.4-1.1-.9,0-2.3.7-4.2,2.2a46.15,46.15,0,0,0-5.2,4.6c-1.6,1.6-3.2,3.2-4.6,4.7h-2.3l3.9-5.1c2.9-3.7,4.3-5.7,4.3-6.1,0-.2-.1-.3-.4-.3C84.55,25.25,82.45,26.85,79.25,30.15Z"/><path class="cls-1" d="M112.05,28.75v.6c-1.1,1.5-2.3,2.3-3.7,2.3a.6.6,0,0,1-.4-.1,1.09,1.09,0,0,1-.5-.1c-3.1,3.8-5.9,5.7-8.2,5.7a1.92,1.92,0,0,1-1.2-.4,2.54,2.54,0,0,1-.8-1,3.34,3.34,0,0,1-.3-1.5,7.66,7.66,0,0,1,1.7-4.5,16.06,16.06,0,0,1,4.2-3.6,9.34,9.34,0,0,1,4.3-1.4c1.3,0,2,.7,2,2.2a8.68,8.68,0,0,1-1.4,4.1,1.27,1.27,0,0,0,.6.1C109.75,31.15,111,30.35,112.05,28.75Zm-4.7-3.5c-1.1,0-2.4.7-3.8,2.2a25.92,25.92,0,0,0-3.8,4.8,10.76,10.76,0,0,0-1.7,3.2,1,1,0,0,0,.4.9,1.82,1.82,0,0,0,1.1.4,6.74,6.74,0,0,0,3.8-1.8,19.48,19.48,0,0,0,3.9-4.2A7.88,7.88,0,0,0,109,27a1.37,1.37,0,0,0-.4-1.1A1.41,1.41,0,0,0,107.35,25.25Z"/></g></g></g></svg>