<?xml version="1.0" encoding="utf-8"?>
<!-- Generator: Adobe Illustrator 25.0.0, SVG Export Plug-In . SVG Version: 6.00 Build 0)  -->
<svg version="1.1" id="Livello_1" xmlns="http://www.w3.org/2000/svg" xmlns:xlink="http://www.w3.org/1999/xlink" x="0px" y="0px"
	 viewBox="0 0 97.3 24.5" style="enable-background:new 0 0 97.3 24.5;" xml:space="preserve">
<style type="text/css">
	.st0{display:none;}
	.st1{display:inline;fill:#6F8387;}
	.st2{font-family:'BodoniMT';}
	.st3{font-size:13px;}
	.st4{display:inline;fill:none;stroke:#6F8387;stroke-width:0.3006;stroke-miterlimit:4.006;}
	.st5{display:inline;fill:none;stroke:#6F8387;stroke-width:0.3008;stroke-miterlimit:4.008;}
	.st6{display:inline;}
	.st7{fill:#6F8387;}
	.st8{fill:none;stroke:#6F8387;stroke-width:0.3006;stroke-miterlimit:4.006;}
	.st9{display:inline;fill:none;stroke:#B0C5AF;stroke-width:1.42;stroke-linecap:round;stroke-linejoin:round;}
	.st10{enable-background:new    ;}
	.st11{fill:#6F8387;stroke:#6F8387;stroke-width:0.25;stroke-miterlimit:4.002;}
	.st12{fill:none;stroke:#B0C5AF;stroke-width:1.42;stroke-linecap:round;stroke-linejoin:round;}
</style>
<g id="Data_1_" class="st0">
	<text transform="matrix(1.0005 0 0 1 8.4365 16.2358)" class="st1 st2 st3">SAB</text>
	<text transform="matrix(1.0005 0 0 1 8.4365 16.2358)" class="st4 st2 st3">SAB</text>
	<text transform="matrix(1.0005 0 0 1 11.0454 16.4638)" class="st5 st2 st3">SAB</text>
	<text transform="matrix(1.0005 0 0 1 42.6035 16.2358)" class="st1 st2 st3">31</text>
	<text transform="matrix(1.0005 0 0 1 42.6035 16.2358)" class="st4 st2 st3">31</text>
	<text transform="matrix(1.0005 0 0 1 39.5298 16.4638)" class="st5 st2 st3">31</text>
	<g class="st6">
		<text transform="matrix(1.0005 0 0 1 63.9448 16.2358)" class="st7 st2 st3">AGO</text>
		<text transform="matrix(1.0005 0 0 1 63.9448 16.2358)" class="st8 st2 st3">AGO</text>
	</g>
	<text transform="matrix(1.0005 0 0 1 56.7065 16.4638)" class="st5 st2 st3">AGO</text>
	<line class="st9" x1="38.2" y1="6.4" x2="38.2" y2="18.9"/>
	<line class="st9" x1="59.7" y1="6.4" x2="59.7" y2="18.9"/>
</g>
<g id="Data_outline">
	<g class="st10">
		<path class="st11" d="M13,7.7v2.2h-0.3c-0.4-1.3-1.2-2-2.2-2c-0.6,0-1.1,0.2-1.4,0.5s-0.5,0.7-0.5,1S8.7,10,9,10.2
			s0.8,0.4,1.5,0.5s1.3,0.3,1.7,0.5s0.7,0.5,1,0.9s0.4,0.9,0.4,1.4c0,0.8-0.3,1.5-0.8,2.1c-0.5,0.6-1.2,0.8-2,0.8
			c-0.7,0-1.3-0.2-2-0.7l-0.6,0.5H8v-2.3h0.3c0.2,0.7,0.6,1.3,1,1.7s0.9,0.6,1.5,0.6c0.5,0,1-0.2,1.5-0.5c0.4-0.3,0.7-0.8,0.7-1.3
			c0-0.4-0.2-0.8-0.5-1.1s-0.8-0.5-1.5-0.6s-1.2-0.3-1.6-0.4c-0.4-0.2-0.7-0.4-0.9-0.8s-0.4-0.8-0.4-1.3c0-0.6,0.2-1.2,0.7-1.7
			s1.1-0.8,1.9-0.8c0.7,0,1.3,0.2,1.8,0.6C12.7,8.2,12.8,8,13,7.7L13,7.7L13,7.7z"/>
		<path class="st11" d="M19.7,13.6H17l-0.9,2.3h1.6v0.3h-3.1v-0.3h1.2l3.1-8.4h0.2l3,8.4h1.1v0.3h-4.1v-0.3h1.4L19.7,13.6z
			 M17.1,13.3h2.5l-1.2-3.4l0,0L17.1,13.3z"/>
		<path class="st11" d="M25.4,15.9V8h-1.3V7.7h4.4c0.5,0,0.9,0,1.2,0.1c0.3,0,0.6,0.2,1,0.4C31,8.4,31.2,8.7,31.4,9
			c0.1,0.3,0.2,0.6,0.2,0.8c0,1-0.8,1.7-2.3,2l0,0c1.8,0.3,2.6,1,2.6,2.2c0,0.3-0.1,0.6-0.2,0.9c-0.2,0.3-0.4,0.6-0.7,0.8
			c-0.3,0.2-0.7,0.4-1.1,0.4c-0.4,0.1-0.8,0.1-1.3,0.1h-4.3v-0.3H25.4z M28.2,8.1h-1.3v3.6h1.2c0.8,0,1.3-0.2,1.5-0.5
			s0.3-0.8,0.3-1.5c0-0.5-0.1-0.9-0.2-1.1c-0.1-0.2-0.3-0.4-0.5-0.4C28.9,8.1,28.6,8.1,28.2,8.1z M28,12h-1.2v4H28
			c0.4,0,0.8,0,1.1-0.1c0.3-0.1,0.5-0.2,0.7-0.5s0.3-0.8,0.3-1.4c0-0.7-0.1-1.2-0.4-1.5C29.4,12.1,28.8,12,28,12z"/>
	</g>
	<g class="st10">
		<path class="st11" d="M44.6,11.8L44.6,11.8c0.9,0.1,1.6,0.4,1.9,0.8C46.9,13,47,13.5,47,14c0,0.7-0.3,1.2-0.8,1.7
			c-0.5,0.5-1.2,0.7-2,0.7c-0.6,0-1.1-0.2-1.5-0.5c-0.4-0.3-0.6-0.7-0.6-1.1c0-0.2,0.1-0.4,0.2-0.6c0.1-0.2,0.3-0.2,0.5-0.2
			s0.3,0.1,0.4,0.2c0.1,0.1,0.2,0.3,0.2,0.5c0,0.3-0.1,0.5-0.3,0.6c-0.1,0.1-0.2,0.1-0.2,0.2c0,0.1,0.1,0.2,0.4,0.4
			c0.3,0.2,0.6,0.2,0.9,0.2c1,0,1.5-0.6,1.5-1.9c0-0.9-0.2-1.5-0.6-1.8S44.3,12,43.9,12h-0.6c-0.2,0-0.3-0.1-0.3-0.2
			c0-0.1,0.1-0.2,0.3-0.2c0.1,0,0.2,0,0.4,0s0.3,0,0.3,0c0.1,0,0.3-0.1,0.6-0.2c0.3-0.1,0.4-0.3,0.6-0.6c0.1-0.2,0.2-0.6,0.2-1.1
			c0-0.7-0.1-1.1-0.3-1.3s-0.4-0.3-0.8-0.3c-0.3,0-0.6,0.1-0.8,0.2c-0.2,0.1-0.3,0.2-0.3,0.3c0,0,0.1,0.1,0.3,0.2
			c0.2,0.1,0.3,0.2,0.3,0.5c0,0.2-0.1,0.3-0.2,0.4c-0.1,0.1-0.3,0.2-0.4,0.2c-0.2,0-0.3-0.1-0.4-0.2c-0.1-0.1-0.2-0.3-0.2-0.5
			c0-0.3,0.2-0.7,0.6-1c0.4-0.3,0.8-0.4,1.4-0.4s1.2,0.2,1.6,0.5c0.4,0.3,0.7,0.8,0.7,1.3C46.7,10.8,46,11.5,44.6,11.8z"/>
		<path class="st11" d="M51.5,7.9v8H53v0.3h-4.1v-0.3h1.5V8.4h-1.5V8.1h0.2C50,8.2,50.8,8.1,51.5,7.9z"/>
	</g>
	<g>
		<g class="st10">
			<path class="st11" d="M68.1,13.6h-2.7l-0.8,2.3h1.6v0.3h-3.1v-0.3h1.2l3.1-8.4h0.2l3,8.4h1.1v0.3h-4.1v-0.3H69L68.1,13.6z
				 M65.5,13.3H68l-1.2-3.4l0,0L65.5,13.3z"/>
			<path class="st11" d="M77.6,13.4h-1.4v-0.3h4.4v0.3h-1.2c0,1.1-0.3,1.9-1,2.3c-0.7,0.5-1.4,0.7-2.2,0.7c-1.1,0-2-0.4-2.8-1.3
				c-0.7-0.9-1.1-1.9-1.1-3.1c0-1.2,0.4-2.2,1.1-3.1c0.8-0.9,1.7-1.3,2.8-1.3c0.6,0,1.1,0.2,1.7,0.5c0.2,0.1,0.3,0.2,0.3,0.2
				c0.1,0,0.3-0.1,0.4-0.4h0.3l0.1,2.3h-0.3c-0.4-1.5-1.2-2.3-2.5-2.3c-0.7,0-1.2,0.2-1.5,0.5s-0.5,0.7-0.6,1.2s-0.1,1.1-0.1,2
				c0,1.6,0.1,2.6,0.2,3.1s0.3,0.9,0.6,1.1c0.3,0.3,0.7,0.4,1.2,0.4c0.4,0,0.7-0.1,1-0.2c0.3-0.1,0.5-0.4,0.5-0.7s0.1-0.8,0.1-1.4
				V13.4z"/>
			<path class="st11" d="M85.5,16.5c-1.1,0-2-0.5-2.8-1.4s-1.2-1.9-1.2-3c0-1.3,0.4-2.3,1.2-3.2s1.7-1.3,2.8-1.3
				c1,0,1.9,0.5,2.7,1.4s1.2,1.9,1.2,3.1c0,1.2-0.4,2.2-1.2,3.1C87.4,16,86.5,16.5,85.5,16.5z M85.5,7.9c-0.5,0-0.9,0.1-1.3,0.3
				c-0.4,0.2-0.6,0.6-0.8,1.1c-0.1,0.5-0.2,1.5-0.2,2.8c0,0.9,0,1.6,0.1,2.2s0.3,1,0.6,1.3c0.3,0.4,0.8,0.5,1.5,0.5
				c0.4,0,0.8-0.1,1.2-0.3s0.7-0.6,0.8-1.3s0.2-1.6,0.2-2.9c0-1.2-0.1-2-0.2-2.5c-0.2-0.5-0.4-0.8-0.7-1C86.3,8,85.9,7.9,85.5,7.9z"
				/>
		</g>
	</g>
	<line class="st12" x1="36.9" y1="6.4" x2="36.9" y2="18.9"/>
	<line class="st12" x1="58.4" y1="6.4" x2="58.4" y2="18.9"/>
</g>
<g class="st0">
	
		<text transform="matrix(0.8622 0 0 1 -71.1333 -74.588)" style="display:inline;fill:#99A598; font-family:'PalaceScriptMT'; font-size:70px;">Tiziano</text>
	
		<text transform="matrix(0.8622 0 0 1 -71.1333 -74.588)" style="display:inline;fill:none;stroke:#99A598;stroke-width:0.75;stroke-linecap:square;stroke-linejoin:round;stroke-miterlimit:10; font-family:'PalaceScriptMT'; font-size:70px;">Tiziano</text>
</g>
<g class="st0">
	
		<text transform="matrix(0.8622 0 0 1 37.2695 -31.3443)" style="display:inline;fill:#99A598; font-family:'PalaceScriptMT'; font-size:70px;">Martina</text>
	
		<text transform="matrix(0.8622 0 0 1 37.2695 -31.3443)" style="display:inline;fill:none;stroke:#99A598;stroke-width:0.75;stroke-linecap:square;stroke-linejoin:round;stroke-miterlimit:10; font-family:'PalaceScriptMT'; font-size:70px;">Martina</text>
</g>
<script  type="application/ecmascript" xmlns="http://www.w3.org/2000/svg">//<![CDATA[
<!--            debugger-->
        var tiziano = document.querySelector('#Tiziano_outline');
        var martina = document.querySelector('#Martina_outline');
        var ampersand = document.querySelector('#Ampersand');
        setTimeout(()=>{
        	tiziano.classList.add("tiziano--show")
        	martina.classList.add("martina--show")
        	ampersand.classList.add("ampersand--show")

        },200)

	
	]]>
</script>
</svg>
